/* XPM */
static char *f3cbe457ff28467aa528889c151958b7[] = {
/* columns rows colors chars-per-pixel */
"40 40 245 2 ",
"   c #020202",
".  c #03010C",
"X  c #090509",
"o  c #160104",
"O  c #0C1400",
"+  c #0E1900",
"@  c #171A07",
"#  c #040012",
"$  c #03001B",
"%  c #0A011E",
"&  c #0A0412",
"*  c #140719",
"=  c #1A151C",
"-  c #240001",
";  c #280106",
":  c #221E00",
">  c #350119",
",  c #310C10",
"<  c #1D2504",
"1  c #1F2410",
"2  c #252A0C",
"3  c #262914",
"4  c #293119",
"5  c #343918",
"6  c #2F3A0A",
"7  c #0D0323",
"8  c #0E022D",
"9  c #080225",
"0  c #130324",
"q  c #110824",
"w  c #140A2D",
"e  c #160929",
"r  c #1A112E",
"t  c #191528",
"y  c #0D0234",
"u  c #13013B",
"i  c #1B0E3E",
"p  c #170A36",
"a  c #1C1534",
"s  c #261A39",
"d  c #290F2E",
"f  c #2B2C28",
"g  c #2D3223",
"h  c #32352A",
"j  c #373A26",
"k  c #2B2737",
"l  c #3B2D30",
"z  c #541613",
"x  c #7B0507",
"c  c #75150B",
"v  c #671C12",
"b  c #6E0D11",
"n  c #4C2F16",
"m  c #671A24",
"M  c #721222",
"N  c #492828",
"B  c #582629",
"V  c #593229",
"C  c #5A3737",
"Z  c #41372F",
"A  c #632729",
"S  c #6C3D3C",
"D  c #6F2F33",
"F  c #5D191E",
"G  c #374508",
"H  c #3A4419",
"J  c #3E4438",
"K  c #3D4728",
"L  c #444B16",
"P  c #474B2A",
"I  c #4A5625",
"U  c #474B35",
"Y  c #4C5437",
"T  c #545837",
"R  c #535230",
"E  c #59642C",
"W  c #5B653B",
"Q  c #636A36",
"!  c #697638",
"~  c #66612A",
"^  c #1C0E44",
"/  c #150343",
"(  c #230A4B",
")  c #261945",
"_  c #280B59",
"`  c #2A1757",
"'  c #36234C",
"]  c #3B3A47",
"[  c #2D2150",
"{  c #3B2A5C",
"}  c #362659",
"|  c #3C3158",
" . c #2C204F",
".. c #2D1866",
"X. c #371D68",
"o. c #3D1D77",
"O. c #3A2667",
"+. c #3A2375",
"@. c #443D45",
"#. c #402E58",
"$. c #421868",
"%. c #441E7F",
"&. c #493364",
"*. c #4C2B7B",
"=. c #3E4142",
"-. c #4A4A48",
";. c #4D5649",
":. c #545C4B",
">. c #565A46",
",. c #4A4756",
"<. c #574B55",
"1. c #4D5C5C",
"2. c #4B5854",
"3. c #535654",
"4. c #555C54",
"5. c #5A5D53",
"6. c #54555A",
"7. c #555B5C",
"8. c #5B5D5C",
"9. c #5C5556",
"0. c #554C4E",
"q. c #674C54",
"w. c #635B58",
"e. c #6F4E4B",
"r. c #5B6246",
"t. c #5A604E",
"y. c #4C6259",
"u. c #556253",
"i. c #5C6255",
"p. c #54635C",
"a. c #5D615C",
"s. c #5F685C",
"d. c #656B49",
"f. c #6C7549",
"g. c #737748",
"h. c #646B54",
"j. c #61655C",
"k. c #656B5D",
"l. c #686B57",
"z. c #6B7255",
"x. c #75795A",
"c. c #706949",
"v. c #4E5D61",
"b. c #565D61",
"n. c #5B5D62",
"m. c #5E5D6A",
"M. c #575C68",
"N. c #544E65",
"B. c #615C63",
"V. c #665B66",
"C. c #695E78",
"Z. c #536262",
"A. c #5C6363",
"S. c #5C6A65",
"D. c #5C616A",
"F. c #5E696D",
"G. c #4E6061",
"H. c #636563",
"J. c #656A63",
"K. c #6B6E65",
"L. c #63646A",
"P. c #65696B",
"I. c #6B6C6C",
"U. c #6A6269",
"Y. c #6C7165",
"T. c #6D706D",
"R. c #787B66",
"E. c #6C6C72",
"W. c #686774",
"Q. c #736E76",
"!. c #697273",
"~. c #727372",
"^. c #76767A",
"/. c #726565",
"(. c #8B0000",
"). c #8A0307",
"_. c #980B09",
"`. c #8B0011",
"'. c #981719",
"]. c #8E160F",
"[. c #AC1409",
"{. c #B90914",
"}. c #A81917",
"|. c #B61717",
" X c #B20E0C",
".X c #822A1A",
"XX c #961724",
"oX c #A81923",
"OX c #972425",
"+X c #813039",
"@X c #AC211B",
"#X c #C50B00",
"$X c #C80606",
"%X c #D10C00",
"&X c #C91710",
"*X c #CD201F",
"=X c #837F5E",
"-X c #91444C",
";X c #788739",
":X c #788445",
">X c #7B835B",
",X c #7C8758",
"<X c #6F814D",
"1X c #7D8462",
"2X c #7D8570",
"3X c #92A63B",
"4X c #848E4D",
"5X c #8A984A",
"6X c #8A9659",
"7X c #97A658",
"8X c #93A04C",
"9X c #A0B159",
"0X c #828B67",
"qX c #8D9967",
"wX c #8D9275",
"eX c #929870",
"rX c #98A465",
"tX c #A6B17C",
"yX c #3C2181",
"uX c #4B2585",
"iX c #552989",
"pX c #572C99",
"aX c #55369B",
"sX c #5D3486",
"dX c #673B8E",
"fX c #5C35A7",
"gX c #642DAC",
"hX c #6A35AA",
"jX c #6534B8",
"kX c #7139B2",
"lX c #6C37AD",
"zX c #5D4292",
"xX c #7C7C83",
"cX c #6948B3",
"vX c #827B96",
"bX c #8D918F",
"nX c #A9A6AC",
"mX c #9F9EA0",
"MX c #D5D6D2",
"NX c #DFD9E8",
"BX c #F7EDFF",
"VX c #FFFEFD",
"CX c #F8F5F6",
"ZX c #F0EFEC",
"AX c #ECCAE9",
/* pixels */
"O G ;X! 1 @ Q 6Xh.  + ;X7XE   4 5X8XH   G 3X6X<   E 9X;X+ 4 Q rX>.1 G rXtX6 O Y ",
"G :X! T 3 U 1X0Xj g T rXg.H h R.,XE 2 5 ;X5XE < U x.:XL j 5.f.d.U J W qX,XH Y 0X",
"7X6Xr.a.K.4.5.i.n.A.j.j.5.i.~.E.j.i.a.~.>.T K.J.I.j.>.>.A.A.i.i.J.J.i.:.k.R.,XqX",
"4XI j.E.a.8.H.^.E.L.8.n.8.P.L.D.L.m.m.6.8.P.m.n.n.P.4.8.7.6.7.A.H.8.4.8.P.5.W I ",
"@ 3 j.8.j.Y.K.H.H.I.I.H.8.H.H.H.A.n.n.8.n.n.8.8.a.a.n.8.8.8.8.8.8.p.i.a.S.7.t.4 ",
"  -.J.a.j.Y.Y.j.a.P.P.a.8.8.a.8.8.A.H.H.P.P.P.H.a.8.7.8.8.8.8.8.8.i.i.i.A.A.5.i.",
"I >XK.8.H.K.Y.H.8.H.H.8.9.-.3.E.a.3.-.] J J =.=.L.L.A.7.M.M.M.n.8.p.i.i.J.u.h.mX",
",Xf.5.A.H.K.K.H.7.H.H.9.j.H.6.@.= * % # . # # $ $ s ,.8.M.M.b.b.7.a.i.i.4.i.h.>X",
"d.5 ;.H.H.H.J.H.H.A.8.H.U.-.= & i $.*.*.sXiXiXuX$.u * 9.j.4.p.p.7.A.S.P.8.4.5.J ",
"+ 3 k.a.H.H.H.j.J.7.m.W.] . 0 &.dXlXkXkXgXhXkXkXlXdX  l 5.;.p.p.p.8.D.D.7.a.;.4 ",
"O r.i.H.n.n.a.a.j.7.m.,.% ` zXfXjXjXjXgXgXgXhXhXhXsX0 = I.p.p.p.4.7.M.D.A.i.W f.",
"f.0Xj.8.n.n.8.8.4.8.m.q p zXcXfXjXjXjXjXfXpXpXiX%.X.$ t ] ] 6.A.4.7.b.b.8.5.d.eX",
"0Xr.:.4.n.n.8.5.:.a.] $ *.aXfXaXaXpXuXuXo.o.o.X.+.` % # 9 $ t b.b.6.b.b.A.A.H.3.",
"P 2 i.H.n.n.8.5.5.H.k 7 ` X.O.X._ _ _ ( ( ( ( ( ^ 9 q w  .} p a M.7.7.b.7.A.2.f ",
"@ P Y.8.n.n.8.8.8.H.k & a e % 7 9 8 y u u / / u 7 # s | O.X.O.y ,.7.b.b.7.8.Y K ",
"H wXj.J.n.n.8.8.8.H.]       & e ) ' } { { O.O.{ ' r # s O.+.+./ k 8.b.b.7.4.>.>X",
">XwX5.K.n.n.8.8.8.A.0.. % a ) ) w w w e 7 0 w i `  .k % ) X.o...a A.A.7.6.7.k.2X",
"d.U ;.H.n.n.8.8.3.6.@.% a ) s $ 9 % % 7 q q % 9 ^ ` | w i X.yX..w 6.7.b.6.8.J.J ",
"H 5 5.8.n.n.8.8.4.6.7 ) k * $ 0 r r r r a p w 8 8 ^ O.` u O.%.` a 7.7.n.n.A.s.g ",
"< P k.H.n.n.8.8.a.t p | # . q s q 7 7 7 w p i ) 8 8 ..` u } O.i ] S.7.n.P.J.i.-.",
"T x.i.H.n.n.8.w.6.#  .{ & X * & & nXBXvXw p ^ ^ r $ ....y #.p s M.7.b.b.7.8.a.Y.",
"z.x.i.a.n.n.8.w.,.q &.) . = = @.MXVXVXNXw p ^ ^ e $ X._ % s t V.n.7.b.b.A.7.j.Y.",
"T Y 5.7.b.n.8.n.,.w w 7 nXZXCXZXCXVXMX* q p ^ i 7 % O.(   @ <.U.8.7.b.b.8.a.i.h ",
"2 2 :.7.A.7.8.n.N.r # C.VXBXCXMXVXVXnXX % p i i 9 7 { d o R w.<.8.8.b.b.A.7.i.g ",
": >.:.p.S.6.0.w.n.k & <.AXAXf mXVXZXVX,.$ w 8 i y ) l - V e.w.9.8.8.7.1.v.J.>.d.",
"c.wX:.p.A.b.j././.C - o > * X MXVXVXBXmX7 w 9 9 ) ' - z v v V /.w.7.7.1.Z.2.z.tX",
"=XR.;.p.Z.A.8.e.b ].].b - ;   ^.MXCXNX] 7 s s ' ' ; b |. X[.].v e.n.7.1.v.4.h.f.",
"R j ;.4.Z.A.-.z ]._.}.OXm , ; - , z ; o > N > > > M oX{.#X#X}..XN 8.S.2.Z.7.d.5 ",
": j u.p.S.A.0.N OX}.}.oXXXXXOX_.(.(.(.(.).`.`.`.'.oX|. X X'.c z C 7.A.Z.Z.A.T 5 ",
"5 x.k.S.Z.Z.9.C v c c x x x {.*X#X#X#X#X$X$X$X{. X(.}.).x c D S w.8.7.1.v.p.>.>X",
"c.wXi.2.Z.7.w.9.9.w.e.e.M oX*X#X%X%X%X%X$X$X$X{.oXM -Xe.S S +XD q.3.7.1.Z.4.d.,X",
"x.l.s.7.1.6.H.n.G.y.2.9.A b '.[.[.[.[.[.[.[. X'.b D q.V.Z N m m N -.A.Z.A.4.h.P ",
"h h I.P.8.8.n.M.M.A.A.H.q.q.C B B B B B z F A V 0.q.B.V.@.N m A l -.P.3.J.i.t.3 ",
"f -.8.A.a.a.m.m.D.L.L.P.E.W.E.m.m.m.B.B.w.w.j.8.A.n.7.6.w.e.S C 0.P.L.E.J.k.>.U ",
"Y z.H.P.j.j.L.L.H.H.H.H.H.H.A.n.D.D.D.D.D.A.A.A.Q.I.H.j.5.K.R./.Q.E.E.I.xXJ.W 6X",
"x.R.a.H.H.H.P.P.H.H.H.H.H.A.8.7.D.D.D.D.7.b.S.P.U.H.j.j.5.i.P.P.^.^.~.P.xXK.z.qX",
"r.U n.xX^.H.T.~.T.~.I.P.P.8.8.P.S.A.S.Z.7.p.!.F.!.!.2.u.p.a.E.Q.L.E.T.I.bX^.K.h ",
"2 4 5.9.~.K.l.>.K.K.l.t.H.6.5.l.l.h.a.p.:.u.A.7.u.u.t.i.j.H.8.n.P.H.k.J.I.K.j.1 ",
"2 T 1Xd.g T 6XrXT 5 E ,XR.g 2 g.qXd.j j d.g.>.g H <X>XR P h.R.h.h -.d.x.j.g 6 ! ",
"T 0Xf.P 4 f.5X~ L P :X4XU 3 L rX4XL 3 >.g.Q Z 5 ! 6XQ n T x.qXH @ >.>X0Xg + E 8X"
};
