/* XPM */
static char *_6fd1030d1bc4d2f9e2ccd2f41f3c137[] = {
/* columns rows colors chars-per-pixel */
"40 40 238 2 ",
"   c #050800",
".  c #0E1600",
"X  c #141C01",
"o  c #161806",
"O  c #1A1E14",
"+  c #261E03",
"@  c #1B2208",
"#  c #1E2619",
"$  c #272B0A",
"%  c #2C360B",
"&  c #262A16",
"*  c #2B3419",
"=  c #323818",
"-  c #33370A",
";  c #2D3327",
":  c #353928",
">  c #323633",
",  c #2E3631",
"<  c #792E1E",
"1  c #5D3F37",
"2  c #762D24",
"3  c #6A3128",
"4  c #683937",
"5  c #793938",
"6  c #743128",
"7  c #3B441C",
"8  c #3D460E",
"9  c #3C4429",
"0  c #3D4631",
"q  c #434B1B",
"w  c #414E0F",
"e  c #69421D",
"r  c #41442B",
"t  c #454E2C",
"y  c #4B522E",
"u  c #575C2D",
"i  c #454A38",
"p  c #4D5A3B",
"a  c #4D533A",
"s  c #575B3B",
"d  c #504B2F",
"f  c #67523C",
"g  c #635E3D",
"h  c #785339",
"j  c #6F4B34",
"k  c #5A623C",
"l  c #58633A",
"z  c #576529",
"x  c #656539",
"c  c #687638",
"v  c #75753C",
"b  c #657515",
"n  c #5C4C48",
"m  c #4D5848",
"M  c #555A4C",
"N  c #5C5B4B",
"B  c #565848",
"V  c #4F5855",
"C  c #555C55",
"Z  c #5B5D55",
"A  c #555E5B",
"S  c #5A5D5C",
"D  c #585556",
"F  c #464741",
"G  c #6A4947",
"H  c #7D4245",
"J  c #7C4D4C",
"K  c #754B48",
"L  c #635544",
"P  c #6C534B",
"I  c #665649",
"U  c #735347",
"Y  c #694D55",
"T  c #754D53",
"R  c #665553",
"E  c #6B5354",
"W  c #625A56",
"Q  c #63555A",
"!  c #615A5A",
"~  c #6A5758",
"^  c #725152",
"/  c #705159",
"(  c #5A6544",
")  c #59654A",
"_  c #4E6159",
"`  c #4D6156",
"'  c #566254",
"]  c #5C6254",
"[  c #55615B",
"{  c #5B615C",
"}  c #5E6957",
"|  c #626A44",
" . c #656849",
".. c #7E6548",
"X. c #687449",
"o. c #757B48",
"O. c #626453",
"+. c #63655D",
"@. c #646A5C",
"#. c #696B5C",
"$. c #676757",
"%. c #6B7456",
"&. c #767959",
"*. c #75615C",
"=. c #4E5F64",
"-. c #555E62",
";. c #5A5C63",
":. c #565C6A",
">. c #5D5969",
",. c #6C5961",
"<. c #4C6066",
"1. c #4B6069",
"2. c #566062",
"3. c #5D6263",
"4. c #5B646B",
"5. c #636563",
"6. c #656A63",
"7. c #696C64",
"8. c #62656B",
"9. c #66696A",
"0. c #6B6C6B",
"q. c #696568",
"w. c #6D7164",
"e. c #6E726D",
"r. c #6D7862",
"t. c #757A65",
"y. c #6C6D73",
"u. c #636572",
"i. c #6E7175",
"p. c #727572",
"a. c #77787A",
"s. c #77686D",
"d. c #8A231D",
"f. c #B3301B",
"g. c #873429",
"h. c #873C34",
"j. c #912F2A",
"k. c #A33B35",
"l. c #B23829",
"z. c #CB3310",
"x. c #80541C",
"c. c #8E6319",
"v. c #844A39",
"b. c #92542F",
"n. c #A9512D",
"m. c #966836",
"M. c #8C6933",
"N. c #AF7231",
"B. c #DF5F1D",
"V. c #E64913",
"C. c #DC6E1F",
"Z. c #CF562A",
"A. c #C86929",
"S. c #C57928",
"D. c #DA7C25",
"F. c #FA712E",
"G. c #884544",
"H. c #835B54",
"J. c #8C6D5A",
"K. c #91764A",
"L. c #79823C",
"P. c #7B8748",
"I. c #7C855C",
"U. c #798659",
"Y. c #7F9341",
"T. c #7D8467",
"R. c #91933C",
"E. c #AE8A3A",
"W. c #D58435",
"Q. c #C88629",
"!. c #F59D2D",
"~. c #EA9D3A",
"^. c #E48B26",
"/. c #F4AD38",
"(. c #808D4A",
"). c #838B58",
"_. c #8A9558",
"`. c #929A58",
"'. c #839445",
"]. c #B59152",
"[. c #96A655",
"{. c #A4AA5D",
"}. c #858A68",
"|. c #8B9569",
" X c #959965",
".X c #A09F79",
"XX c #9BA978",
"oX c #99A664",
"OX c #A7A765",
"+X c #AEB16D",
"@X c #CF9249",
"#X c #E69447",
"$X c #C8A249",
"%X c #D7AB58",
"&X c #EAA848",
"*X c #ECB848",
"=X c #F5B547",
"-X c #F9AA57",
";X c #EDB857",
":X c #F8B955",
">X c #E5A550",
",X c #DEB561",
"<X c #EDBC67",
"1X c #F1C85A",
"2X c #DCCC78",
"3X c #E9C864",
"4X c #FCD579",
"5X c #FACC71",
"6X c #797A80",
"7X c #7E8180",
"8X c #99A085",
"9X c #B4B795",
"0X c #BBC19D",
"qX c #BDC1A8",
"wX c #D9CD8F",
"eX c #FCD388",
"rX c #F2D089",
"tX c #FFE288",
"yX c #FFED96",
"uX c #FDE798",
"iX c #FFF195",
"pX c #DBDAB1",
"aX c #C8CBAC",
"sX c #D8E2B1",
"dX c #FFF5A6",
"fX c #F8EEB8",
"gX c #FFF7B7",
"hX c #F1E5A8",
"jX c #DBD9C8",
"kX c #F9EEC5",
"lX c #FBF8C8",
"zX c #FFFCDD",
"xX c #FDF3D8",
"cX c #E7EACF",
"vX c #FDFDE4",
"bX c #FFFFEA",
"nX c #FEF3E4",
"mX c #FFFFF1",
/* pixels */
"  7 P.c X o l ).O.  X P.oXu   $ Y.[.=   w +XOX+   x {.L.o + v  XN & 8 `.+X% . a ",
"q I.o.l * i I.}.: ; l XXo.7 : r.U.z $ 9 )._.u - d &.o.q : a &.X.i i | |.I.- y T.",
"[._.) 6.e.{ ] { 9.9.+.M M Z i.i.] } 9.0.N k %.) N W I O.+.! $.@.5.0.+.Z 7.t.I._.",
"L.q ] a.9.3.;.y.y.9.3.V S 3.A ;.! n ,.Q W @.' m C 0.Z D S S S 5.5.S S 5.y.D k q ",
"X $ 7.S 0.p.a.y.0.e.0.5.D S ] $.K 4 3 4 G E S C [ { 5.S S S S S S S S S ;.;.' O ",
". r 6.+.7.e.p.0.6.0.6.{ C S ] $.K G.h.6 H J E ! 5.[ A { [ [ { S S S ' [ ;.8.' Z ",
"y t.6.S +.w.w.@.5.9.5.Z C S { 5.*.H.G.h.h.h.5 T q.2.A A -.:.;.;.S { [ [ 3.[ %.9X",
"I.%.C S 5.7.#.+.3.8.5.C C S 3.5.P 4 3 6 < 2 5 4 Q 4.A V 2.:.;.3.{ { [ [ V } %.U.",
" .9 m 3.9.9.6.6.5.5.3.3.A A A R 5 2 h j j K ^ R ! S A A A A [ [ [ [ { { 3.C ) t ",
"@ * @.S 8.8.5.6.3.{ { { A A A R v.3 f L I R W Z S S A A [ [ [ [ [ [ { ;.C { B * ",
"X ( ] 5.3.5.{ ] { [ [ [ [ A A Z P 1 n O.Z A C _ _ _ [ [ [ [ [ [ [ 2.-.2.[ ' ( %.",
"%.T.] S ;.;.{ [ A A A C A A A Z n I D S A _ ` ` ` _ [ [ [ [ [ [ [ 2.-.2.[ ) ( |.",
"}.$.] { 3.3.{ [ { [ [ [ [ [ A Z E / Q -.-.[ ' ' m V A [ [ [ [ [ ' ' [ [ A ' @.m ",
"9 & Z { 3.3.{ [ { [ [ [ [ [ A W T T Q ;.S D L f n D Z S S [ [ [ ' ' [ [ C [ m ; ",
". 9 #.S 3.3.{ [ [ A [ [ [ [ A W J J Q S Y H g.g.H T / ~ ! S [ [ [ [ 2.2.C } p 9 ",
"= T.+.e.3.;.{ [ { A A A [ [ A W J J E E G.j.d.d.G.T J ^ W S [ [ [ [ 2.2.[ } ) U.",
"U.}.' 6.3.3.{ [ A A S S A A -.;.R ^ J G.k.j.j.G.P P v.v.P Z A [ [ A -.-.V A #.t.",
"( p ] 3.;.;.[ A A A S S A -.-.;.Q ^ G.k.f.f.h.K I L v.v.P S A [ [ A -.:.;.{ 6.0 ",
"> , V V { S S A A A ;.;.-.A Z Q R J k.f.z.z.b.U N N K K Z A <.<.[ A -.:.3.3.@.* ",
"# M { A A A A A A A ;.;.-.S R P P v.k.z.z.z.n.h N N P E S =.1.<.[ A -.:.-.8.] i ",
"q U.} 3.-.A C C S S ;.;.-.Z P J...e n.Z.V.V.Z.b.f N E Y S -.=.<.C A -.-.8.{ ] r.",
"c X.m [ -.-.C C D S ;.;.A Z h K.m.x.b.A.B.F.B.n.M.f R ~ Z C A A A A -.-.-.A } $.",
"p 0 m [ -.-.A A Z S ;.:.S I h m.N.N.c.N.S.-XC.A.N.h P s.E L N Z Z A -.-.4.{ ] 9 ",
"@ @ C 3.A -.-.-.S S ;.:.;.I h N.W.S.c.E.Q.4XD.D.@Xm.h J...U L Z Z C A -.A A } * ",
"X s $.{ S -.:.:.>.>.:.:.4.L b.W.^.^.S.@XQ.5X&XW.W.@Xm.m.].j N 3.-.A A A A { p ( ",
"x .XB 5.S ;.:.:.>.>.-.-.-.L @X~.!.!.~.&X~.:X4X5X-X#X@XE.$XM.N 4.-.-.A A 3.m X.XX",
"}.&.Z S S { 3.:.;.>.S [ C g %X=X/./.:X;X=X:XiXyXeX-X:X;X&X].I C -.-.A A A ' X.| ",
"s = Z ;.S [ [ [ ;.;.A ' C x $X*X/.=X4X;X&X5XiXuX<X>X:X=X:X$Xx V A -.A A S 6.) % ",
"$ r 5.8.S [ [ [ S S S ' { u E.1X*X1XyX4X3XtXdXdXeXeX4X:X*X,Xx V A -.A A 3.C p % ",
"$  .+.9.S { 2.-.A S Z A 3.s R.3X3X4XdXuXyXdXgXfXgXfXgXtX<X].g C A A A A A C k U.",
"x }.#.5.S ;.:.:.[ Z ' A 4.C v 2X2XuXgXgXgXgXlXlXlXkXlXhXwXK.N C -.-.A A A Z ( I.",
"o.X.Z S S ;.:.:.[ ' ' S 4.{ x wXrXgXlXlXlXfXlXbXzXzXvXcXpX .M D -.-.-.A ;.]  .t ",
": ; 0.5.S S :.:.S [ ] +.3.3.] 9XhXgXlXkXzXxXxXbXbXbXlXsX0XN C S 8.8.u.u.3.{ C # ",
"& F S S ] { 3.-.3.+.+.+.0.5.6.w.pXfXkXxXnXnXnXvXbXvXlXpX}.] @.3.8.8.u.u.y.Z B a ",
"a &.5.5.+.+.5.8.5.+.5.+.+.+.7.N t.aXkXzXvXmXmXbXbXvXaXt.M +.@.+.9.y.9.9.a.+.k (.",
"&.}.+.S +.@.8.5.5.5.5.5.+.+.D Z D Z }.9XjXcXcXjXqX8X#.M Z 6.S 5.y.y.0.0.6Xw.X.oX",
" .r S a.p.0.a.p.p.a.0.p.0.S S 0.y.9.Z B ! S i.q.+.w.] ] +.C i.i.8.y.y.0.7Xa.#.: ",
"$ = #.5.q.7.%.( e.e.$.] 0.5.] +.6.6.Z Z Z S 8.5.B ] M ] #.+.S A 9.5.+.+.0.p.M @ ",
"% l I.s : s _.OXs r u ).p.; & X. Xx 9 0  .&.] : - P.T.i r | &.$.; F O.w.S ; = c ",
"s }.o.q = X.R.b - t P._.m & 7 `.'.w * m %.| : = c Y.| 9 y U.|.t O M T.}.> o z [."
};
