/* XPM */
static char *_f0ff41f79074ddec9db2b156d83c6b1aQdzGwDkFQT7l2ih[] = {
/* columns rows colors chars-per-pixel */
"40 40 167 2 ",
"   c #050502",
".  c #0C0A05",
"X  c #120F0F",
"o  c #15140C",
"O  c #1A180E",
"+  c #191812",
"@  c #1F1F1D",
"#  c #201F16",
"$  c #201E1C",
"%  c #21210B",
"&  c #2B2A0E",
"*  c #252415",
"=  c #2C2C1D",
"-  c #313013",
";  c #3D3E14",
":  c #3E3F18",
">  c #222222",
",  c #292725",
"<  c #262825",
"1  c #2A2A24",
"2  c #2D2D2B",
"3  c #2F302F",
"4  c #333324",
"5  c #3B3A26",
"6  c #32322B",
"7  c #36382F",
"8  c #3C3C2C",
"9  c #353632",
"0  c #373933",
"q  c #3A3B33",
"w  c #3B3D3C",
"e  c #3E4134",
"r  c #3F423D",
"t  c #444710",
"y  c #41421A",
"u  c #494A18",
"i  c #5C5F1C",
"p  c #61631D",
"a  c #414424",
"s  c #44442C",
"d  c #47492E",
"f  c #494C2F",
"g  c #4C502B",
"h  c #595D25",
"j  c #52542A",
"k  c #55582C",
"l  c #585C2E",
"z  c #434532",
"x  c #464836",
"c  c #4B4D34",
"v  c #45463C",
"b  c #47493F",
"n  c #4A4C3C",
"m  c #4E5136",
"M  c #4D513F",
"N  c #595C34",
"B  c #54573B",
"V  c #55583B",
"C  c #5A5D3B",
"Z  c #5D6025",
"A  c #5F643D",
"S  c #666B25",
"D  c #6A6E27",
"F  c #626528",
"G  c #65692F",
"H  c #6A6E2B",
"J  c #6D722B",
"K  c #747927",
"L  c #797B25",
"P  c #797E2A",
"I  c #656A33",
"U  c #6A6D34",
"Y  c #626539",
"T  c #666B3C",
"R  c #6B6E3A",
"E  c #6E733B",
"W  c #767B35",
"Q  c #797D33",
"!  c #71763D",
"~  c #767B3C",
"^  c #797E3F",
"/  c #424342",
"(  c #464942",
")  c #4B4D44",
"_  c #515443",
"`  c #545942",
"'  c #5B5F40",
"]  c #5A5F4B",
"[  c #4F5452",
"{  c #515753",
"}  c #555C55",
"|  c #585E56",
" . c #545E5C",
".. c #585E5C",
"X. c #5E6142",
"o. c #5D634B",
"O. c #5B6354",
"+. c #57605F",
"@. c #5A615E",
"#. c #626643",
"$. c #676A44",
"%. c #60664C",
"&. c #656C4B",
"*. c #6C6F4A",
"=. c #6C7243",
"-. c #6D734C",
";. c #727746",
":. c #757A43",
">. c #797E43",
",. c #717749",
"<. c #636A55",
"1. c #686F55",
"2. c #60675F",
"3. c #636A5E",
"4. c #686F58",
"5. c #727653",
"6. c #757C5A",
"7. c #576160",
"8. c #5B6362",
"9. c #5F6867",
"0. c #5F6868",
"q. c #606665",
"w. c #616966",
"e. c #646B6A",
"r. c #686F6E",
"t. c #67706F",
"y. c #69706E",
"u. c #677070",
"i. c #6B7372",
"p. c #717979",
"a. c #7F841C",
"s. c #7D8225",
"d. c #7D833D",
"f. c #7D8344",
"g. c #7C8049",
"h. c #79817F",
"j. c #95991F",
"k. c #9DA31C",
"l. c #A2A71F",
"z. c #A5AB1A",
"x. c #808628",
"c. c #868D2E",
"v. c #8A8E2D",
"b. c #8B9122",
"n. c #8F9627",
"m. c #8B922C",
"M. c #8C942D",
"N. c #939821",
"B. c #949B24",
"V. c #989D25",
"C. c #808635",
"Z. c #858B34",
"A. c #81873E",
"S. c #848A3B",
"D. c #8A9033",
"F. c #8F9535",
"G. c #8B923F",
"H. c #909531",
"J. c #93993C",
"K. c #9AA036",
"L. c #AAAF23",
"P. c #808543",
"I. c #858B43",
"U. c #808449",
"Y. c #899040",
"T. c #8E9443",
"R. c #A6AD40",
/* pixels */
"X : P H * # S Z.F o % a.k.i . - b.N.;   t z.j.& . p l.L O = J n.Z 1 a V.L.; + c ",
"u x.! B 6 x f.f.x 3 C Y.~ e 0 *.A.Y 9 0 ~ D.C 3 x ~ ~ c 0 ` :.=.) ( $.T.U.r M d.",
"n.m.O.8.8.@.@.q.8.@.@.....@.q.e.8. .8.8...@.8.8.8.@.....@...@.8.8.8.+.8.r.r.6.M.",
"Q j ..t.8.8.q.r.t.q.8.....8.8.8.8...+... .8.+...+.9.8.....+.8.8.8.8.+...e.8.O.d ",
"# , ....w.t.r.e.w.e.t.8...8.w.8.8.8.......@.+.+.8.8.....8.+.8...+.+.8.8.8.@...2 ",
"o z @.@.w.i.r.w.w.r.r.8.....8.8.8.+....... . .8.w.....7.8...........+.8.8.8.| G ",
"j -.O.@.8.w.e.w.w.8.8... .....8.8.8.+... . ...8.8.8. ... . .........+.8.8.8.1.R.",
">.=.| @.8.e.i.e.8.8... . ...8.8.+.@... . . .....8.8. . . . . . .....8.8.8.8.4.f.",
"Y z { 8.8.q.w.e.w.8..... . .+... . . . ..... . ... . . ... . . . . .8.w.8.+...v ",
"$ 6 @.8.8.8.8.8.8.8.8.+. . ....... . . . . ... . . . . ..... . . . ...8.8.8.[ 6 ",
"* C O.8.8.@.w.@......... . . . ..... . . . . . . . . . . . .+. . ... . .....] K ",
"D d.| ......8..... . . . . .+.+... . . . . . . . . . ... . ... ... . ..... .&.n.",
"C.I | ....@.@....... . . . ...+... . . . . . . . . . . . . . ...+... . .+.8.O.l ",
"s 6 } @.q.8....... . ..... .....}  . . . . . . . . . . ...+.....+... . .....[ 6 ",
"+ z @.8.@.@.8.@... . ... . ... .}  . . . .} } ..+... . . ... . ... .........{ s ",
"y A.3.8.8.+..... . . ..... . . ... . . . . . .+.+..... . . . . ...+... .....O.W ",
"Q I.@.8.@. . . . . . ..... . . . . . ... . . ...+. . . . ... . ..... . . . .<.~ ",
"T V ..8.+. . .+... ....... .+.7..... . . . . ...+... . . . . . ... .........O.c ",
"8 7 .... . .+.8... . ..... ...+.+.+... . ... . . . . . . . . . .+. . ...7.8.8.6 ",
"1 M @.+..... . . . . . . . . . . . ... . ... . . . . ... . . . . . . ...8.9.@.n ",
"j ;.@.+.+... . . . . . . ... . . . . . . . . ..... . . . . . . . . ... .....@.=.",
"R =....... . . . . . . . . ... . . ....... . . . . . . . . ..... . .8.......O.T ",
"m e } ..+. . ..... . . . . . . . . . ... . . . . . . . . . ... . . .+.+.....| 8 ",
"> < } ..@... ... . . . . . . . . . . . . . . . . . . . . . . . . . . .....@.} 9 ",
"* V | ...... . . . . . . . . . . ..... . . . . . . . . . . . . . . . . ...+.} H ",
"S T.O...@... . . . . . . ... . . ...7.+. . ... ...7... . . . . ... . . .....&.K.",
"d.~ | ......+. . . . . . . ... ....... . . .+... ... . . . . ..... . . .....<.E ",
"C e ..+.+...+. . . . .......+. . . . . . . . . . . . . .+. . . . . . . ...7.| q ",
", w @.8.8.7.7. . . . ..... ..... . . . . . . . . . . ....... . . . . . . ...{ 8 ",
"4 X.@.9.8..... . . . . . . ...+. . . . ... . ..... . . . . . . . . . . . ...o.s.",
"U I.O.+.7. . . . . . ..... ......... . . ... . . . . . . . . . . . ....... .o.c.",
"~ R O........... . ...+.+. ... ... . . . . . . . . ... . . . . .......8.....O.g ",
"5 q 8.8.+...+.......8.7.+.8.8............. . . . . ... ... .....8.8.8...8.8.} 2 ",
"2 b O.8...+.@.....8.8.8.e.e.w.8.8....... . . ...7.+... ...8.8.8.8.0.8.8.w.8.{ c ",
"B 5.q.8.8.8.w.8.w.w.9.8.8.8.8.8.8.8.+.....7.8.0.r.i.0.8...8.r.8.w.t.e.r.i.w.%.c.",
":.5.@.w.8.8.w.r.w.w.8.8.8.8...8.8.8.8.+. .+.8.e.8.w.8.+...+.w.w.i.i.i.u.p.u.-.m.",
"X.n ..i.i.w.i.i.t.i.r.w.8.8. .w.w.8.8.@...+.w.8.w.w.7.....@.r.r.w.r.r.i.h.i.3.8 ",
"2 9 | @.w.e.y.3.w.r.w.8.@.....e.e.2.| ....O.@.....@.O.........@.8.8.8.w.e.w...2 ",
"= N >.' w ` G.J.V / A A.~ 6 6 W F.T q v #.-.` w z ~ ~ _ ( #.>.T 0 ( &.,.] w q I ",
"k d.E x q *.G.J z b ^ S.j , f H.v.z 2 B ! #.e 0 R S.I r _ g.I.d > _ f.~ 6 @ h B."
};
