/* XPM */
static char *aeb86be9b12045368b6fed5a0e849b24D9IJ9pKuVE8neQYu[] = {
/* columns rows colors chars-per-pixel */
"40 40 230 2 ",
"   c #030202",
".  c #0A0201",
"X  c #030A03",
"o  c #0A0A06",
"O  c #03000A",
"+  c #0B0109",
"@  c #0A0B0A",
"#  c #120102",
"$  c #180705",
"%  c #14000A",
"&  c #1C010D",
"*  c #051309",
"=  c #16120D",
"-  c #0C0812",
";  c #140915",
":  c #0E1315",
">  c #1C1A12",
",  c #161818",
"<  c #280308",
"1  c #370601",
"2  c #261E0E",
"3  c #250416",
"4  c #2C0414",
"5  c #360717",
"6  c #3C041B",
"7  c #231B19",
"8  c #17200D",
"9  c #17241D",
"0  c #1B241E",
"q  c #2D2C0C",
"w  c #292A15",
"e  c #3A3C14",
"r  c #383619",
"t  c #191B22",
"y  c #3F0920",
"u  c #241B23",
"i  c #281E26",
"p  c #192724",
"a  c #232624",
"s  c #252A22",
"d  c #272629",
"f  c #2B262B",
"g  c #2B2A2B",
"h  c #362C2D",
"j  c #2D312D",
"k  c #3A3A26",
"l  c #34352F",
"z  c #252A32",
"x  c #312A34",
"c  c #2A3437",
"v  c #393934",
"b  c #35343B",
"n  c #3B3B3A",
"m  c #460903",
"M  c #4C1000",
"N  c #5D1205",
"B  c #42051F",
"V  c #670B06",
"C  c #6D0F09",
"Z  c #770B01",
"A  c #7B0C12",
"S  c #490828",
"D  c #590627",
"F  c #550B2A",
"G  c #5C0735",
"H  c #66092D",
"J  c #790C29",
"K  c #660A35",
"L  c #7B0536",
"P  c #740A33",
"I  c #7C0A35",
"U  c #770539",
"Y  c #7C063C",
"T  c #730D3B",
"R  c #7A0A3C",
"E  c #6C123C",
"W  c #7D103A",
"Q  c #433D24",
"!  c #403738",
"~  c #384007",
"^  c #3E412E",
"/  c #38463B",
"(  c #3D443C",
")  c #4C471B",
"_  c #4F531E",
"`  c #697017",
"'  c #484829",
"]  c #565728",
"[  c #484936",
"{  c #4F5233",
"}  c #595936",
"|  c #53623B",
" . c #5C623B",
".. c #686A29",
"X. c #6E7024",
"o. c #797C27",
"O. c #696A37",
"+. c #6B7238",
"@. c #767A37",
"#. c #3D3A43",
"$. c #6A0D43",
"%. c #770B40",
"&. c #771140",
"*. c #3D4845",
"=. c #384D56",
"-. c #3A5862",
";. c #464747",
":. c #454B4C",
">. c #465748",
",. c #4D534B",
"<. c #55584A",
"1. c #595E4D",
"2. c #4A4E51",
"3. c #524F50",
"4. c #4C5354",
"5. c #495657",
"6. c #4D5C5A",
"7. c #525452",
"8. c #545C55",
"9. c #5A5C54",
"0. c #53565A",
"q. c #5D575E",
"w. c #555C5C",
"e. c #5A5D5C",
"r. c #635E40",
"t. c #62595A",
"y. c #5D6247",
"u. c #4D645D",
"i. c #536055",
"p. c #5B6255",
"a. c #56615C",
"s. c #5B625C",
"d. c #5C6A58",
"f. c #666846",
"g. c #6A7246",
"h. c #727442",
"j. c #757949",
"k. c #626353",
"l. c #696D56",
"z. c #62645C",
"x. c #62695D",
"c. c #6D7355",
"v. c #757757",
"b. c #475C68",
"n. c #555C62",
"m. c #5A5D62",
"M. c #595C6A",
"N. c #4B5D76",
"B. c #535F77",
"V. c #625B62",
"C. c #625F70",
"Z. c #556262",
"A. c #5C6363",
"S. c #5E6963",
"D. c #5D636A",
"F. c #5F696B",
"G. c #4C6876",
"H. c #616564",
"J. c #636A64",
"K. c #6E6F61",
"L. c #62656B",
"P. c #646B6B",
"I. c #696E6B",
"U. c #67716A",
"Y. c #6A726C",
"T. c #636773",
"R. c #666A74",
"E. c #6A6F74",
"W. c #6A7373",
"Q. c #6F7676",
"!. c #717975",
"~. c #860D05",
"^. c #881408",
"/. c #951406",
"(. c #991213",
"). c #A71507",
"_. c #BD1503",
"`. c #B71A07",
"'. c #BC1A01",
"]. c #B5150C",
"[. c #BD140B",
"{. c #A40E13",
"}. c #B10E13",
"|. c #AA1416",
" X c #B81915",
".X c #B72109",
"XX c #8B0D28",
"oX c #890D2B",
"OX c #9B1221",
"+X c #860937",
"@X c #CB0E04",
"#X c #C31502",
"$X c #C51706",
"%X c #C31A02",
"&X c #C01410",
"*X c #810742",
"=X c #7B8227",
"-X c #7C8437",
";X c #7D8549",
":X c #8A8F16",
">X c #9AA616",
",X c #878C26",
"<X c #8B942A",
"1X c #949828",
"2X c #878A3A",
"3X c #939336",
"4X c #97A126",
"5X c #A4AB25",
"6X c #A6B32F",
"7X c #888844",
"8X c #8F9646",
"9X c #838A55",
"0X c #597E92",
"qX c #7A7E89",
"wX c #58818D",
"eX c #658B9D",
"rX c #6B97A4",
"tX c #8F9BA9",
"yX c #83A6B2",
"uX c #89B9C7",
"iX c #93B6C9",
"pX c #B1BFCC",
"aX c #9BC5CE",
"sX c #97C6D9",
"dX c #A5CFDD",
"fX c #9CC8E3",
"gX c #B7D8E9",
"hX c #D0EBF3",
"jX c #EAEFFF",
"kX c #FBFBFA",
/* pixels */
"] u q >X>X{ f _ <X=Xr = ..5X` o 2 :X5X)   e <X:Xq . ] >X:X2 = X.,X..7 w ` =Xe - ",
"-X<.#.h.8Xf.;.2.h.j.<.l { @.h.[ z  .2X@.^ j } 7Xj.b #.h.8X} l v j.;X[ g 9.j.=X) ",
"<X9XL.I.z.e.m.S.z.s.e.S.q.0.s.J.A.H.z.p.d.s.w.9.H.L.n.9.1.e.A.D.H.y.8.m.C.9.,X1X",
"~ 1.D.E.8.s.S.S.e.D.Z.s.w.L.L.8.w.S.P.M.n.Z.a.H.D.P.s.w.n.A.J.U.E.F.A.J.I.z.{ o.",
"x q.m.A.s.p.s.Z.A.s.8.S.s.e.e.F.a.8.s.e.w.e.w.s.A.H.s.s.H.U.J.J.P.J.!.P.,.e.g > ",
"..y.s.s.P.n.n.w.0.s.p.D.H.e.e.J.J.e.n.e.8.s.S.A.D.A.e.<.e.Q.E.I.P.U.P.x.L.R.' , ",
"6Xj.T.D.s.m.M.w.m.e.8.w.m.m.S.H.n.8.8.A.M.q.S.S.H.n.n.s.s.A.A.J.D.R.R.d.w.M.g._ ",
"j.l.D.D.a.J.w.s.p.w.n.e.e.8.H.A.m.A.w.e.e.9.s.n.x.A.n.n.w.e.A.e.d.!.L.A.z.9.v.@.",
"n n.w.A.L.H.s.n.q.e.>./ j f g a z d #.5.q.t.8.e.e.e.w.w.e.s.S.H.T.T.A.A.D.0.^ ..",
"e ;.n.S.H.e.8.a.<.n ; + .     . #     , ;.u.q.M.e.e.w.w.e.s.s.A.s.H.A.s.n.m.k u ",
"o.f.m.8.8.e.e.5., @   < N ~.~.^.~.~.1   t 2.t.a.e.e.e.e.e.e.e.e.s.z.A.p.m.H.] 7 ",
"2Xc.9.i.e.A.n.d O # C ].@X#X'.'.'.$X).m   g i.w.e.e.e.e.e.w.w.w.m.S.e.p.m.1.-XX.",
"} k.i.a.w.q.n   = 1 ^././.).}.&X`.#X#X/.# @ >.9.e.e.e.e.w.w.w.w.e.m.m.e.e.<.+.2X",
"g 4.w.s.A.3.>       *   . . # 1 Z &X$X X6 O v e.e.e.e.e.e.e.e.e.s.m.D.A.s.9.l Q ",
"' 7.e.e.:.,   0 n.qXtXyXwX-.c @ X A #X`.D   s M.e.e.e.e.e.e.e.e.s.e.m.s.A.A.[ > ",
"@.k.q.9.j O 5.pXjXkXkXkXgXsXiX=.. m #X'.J . 8 e.e.e.e.e.e.e.e.e.n.s.e.p.T.H.;Xe ",
"j.f.a.5., z uXhXjXhXhXhXdXsXyXb.: m #X'.oX% # s b :.w.Z.q.t.u.n.M.9.w.p.S.x.2Xo.",
"' k.H.:.= *.uXaXaXaXsXsXfXuX0Xb.* 1 #X'.oX3       X g w.s.9.8.t.w.e.m.8.D.p.} f.",
"w 0.T.4.X d G.0XeXrXrXrXeXwXG.b.: M #X#XoX4 + V N # @ :.w.8.i.e.p.m.w.w.D.8.v ! ",
"{ Z.L.s., + c N.b.b.b.B.N.G.-.p   Z $X[.oX5 . }. Xm . #.n.Z.A.6.s.e.w.e.A.w.,.s ",
"j.z.t.9.c   X , c =.b.b.-.=.p   $ ).%X).oX6 . A {.m   b m.m.V.w.w.w.m.s.n.m.j.] ",
"O.k.z.s.4.: . 1 + o * X @ o . < ^.#X'.].I y % F T S + l k.8.e.A.n.8.m.8.m.A.+.O.",
"k >.8.w.3.- 1 (./.V M 1 1 m Z ).@X_.'. XR 5 # G $.S . l z.i.w.w.Z.w.w.8.e.m.' { ",
"x 8.A.w.3.  < ].#X$X_.$X[.`.%X#X`..X_.{.R 5   K R D   c n.M.V.9.6.n.e.J.w.0.d i ",
"X.1.D.9.( - 4 ).$X_._.$X$X#X_._.].%X#XoXT 5   K R D   s e.e.q.w.m.0.e.A.8.q.{ 2 ",
"<Xc.n.9./ + 4 OX'._._._.`.`._._._.'.].oX%.6 . H U H X g q.w.w.6.w.w.s.e.e.s.7XX.",
"+.c.w.e.(   4 +X$X$X$X_._._.[._.$X`.OXI Y 6 + H U H   f e.w.a.6.w.s.p.w.a.8.-X=X",
"h e.e.m.:.. < +X|.].'.'.'.%X'.`.$X|.oXL Y 6 + D R F   g e.w.m.e.n.A.8.8.A.n.' } ",
"Q ,.Z.m.,.@ % P oXOX|.].].].|.|.OXoXR R I 5 + H Y F   b Z.0.q.9.w.n.s.S.F.M.k f ",
",X .n.e.<.: ; H T P I +X+X+XI T J R $.R I 4 % P R B   n u.w.e.e.8.m.A.A.D.A.f.k ",
",Xf.n.e.p.t + D +XL L R R T T T E R T R P 4 + F F 3 @ ;.u.m.a.a.s.e.w.0.a.s.9X+.",
"' k.a.q.H.s   S T G S B 6 5 5 5 T +XL %.R 3   & %   9 t.Z.V.q.s.w.e.9.e.S.e.+.@.",
"f 4.A.D.s.c   3 T E 6 .     +   H L &.R P <   - : z 4.e.p.x.8.w.m.e.e.w.L.m.n k ",
"' ,.A.H.P.2.  & L Y T y   a ,   D I T %.&.& * 3.A.A.I.J.A.L.m.A.1.p.A.m.x.1.[ d ",
"=XO.J.I.U.n.; & &.L R S   *.s . G W J L P # : q.s.A.H.s.H.R.T.s.D.H.s.A.R.H.K.[ ",
",Xj.J.!.Y.w.t + H P P 6 + *.a . F I I *XK . 0 m.J.s.e.S.A.e.J.I.L.P.s.D.A.p.v.@.",
"k x.W.qX!.U.(     & & . 0 0.b   4 H E $.S   p F.n.e.e.D.P.Y.Y.P.W.W.F.W.Y.s.<. .",
"i 7.U.E.L.P.S.( , 7 7 a ;.e.7.,   3 3 < . X ( J.E.A.9.s.J.Y.I.P.z.Y.P.P.H.7.b b ",
"] [ *.z.v.y.,.:.d.g.| 4.6.g.h.r *   o $ o 0 r.7X+.k n f.;X .;.e.2X9Xy.;.y.h.{ d ",
"1X] , w @.-Xy., ) 3X7X3.l X.<X..g f [ O.{ a ) 1X4Xr u ] <X-X[ n ,X3X+.v [ @.@.' "
};
