/* XPM */
static char *a74d6996bb614cd3db0f037f7870b30ew6b4u6MSmWzGisc0[] = {
/* columns rows colors chars-per-pixel */
"40 40 242 2 ",
"   c #020201",
".  c #0C0101",
"X  c #020A03",
"o  c #0B0B00",
"O  c #09080C",
"+  c #120001",
"@  c #1C0001",
"#  c #180906",
"$  c #0E1400",
"%  c #07130E",
"&  c #151705",
"*  c #0B0C12",
"=  c #081617",
"-  c #151915",
";  c #180C12",
":  c #240000",
">  c #2A0000",
",  c #230405",
"<  c #350000",
"1  c #3C0102",
"2  c #390706",
"3  c #301104",
"4  c #1B2403",
"5  c #1E231B",
"6  c #25290A",
"7  c #2B3407",
"8  c #262918",
"9  c #2E3519",
"0  c #363A18",
"q  c #333B0B",
"w  c #261D22",
"e  c #1D2323",
"r  c #0F282C",
"t  c #232521",
"y  c #272B27",
"u  c #322625",
"i  c #2D312D",
"p  c #363928",
"a  c #2B3534",
"s  c #363A37",
"d  c #37243A",
"f  c #141829",
"g  c #420001",
"h  c #490604",
"j  c #560106",
"k  c #481107",
"l  c #580613",
"z  c #561212",
"x  c #6A0605",
"c  c #770407",
"v  c #6D1511",
"b  c #5B231C",
"n  c #702317",
"m  c #4A1724",
"M  c #541F26",
"N  c #641727",
"B  c #741923",
"V  c #4B3833",
"C  c #6E282E",
"Z  c #3B4415",
"A  c #3E4908",
"S  c #3C4326",
"D  c #38423C",
"F  c #424A0E",
"G  c #474C2A",
"H  c #454837",
"J  c #4C5433",
"K  c #4D533A",
"L  c #52563A",
"P  c #51582B",
"I  c #76493E",
"U  c #5C643D",
"Y  c #5F6531",
"T  c #5A642B",
"R  c #63683C",
"E  c #687234",
"W  c #2F3D48",
"Q  c #513B40",
"!  c #3C4444",
"~  c #2B4F55",
"^  c #145979",
"/  c #32596A",
"(  c #186674",
")  c #286675",
"_  c #326873",
"`  c #1A4944",
"'  c #4A4D44",
"]  c #474A47",
"[  c #4D534E",
"{  c #4B5043",
"}  c #555B4B",
"|  c #555848",
" . c #4C4D51",
".. c #4C5555",
"X. c #535552",
"o. c #545B54",
"O. c #5A5D55",
"+. c #54555B",
"@. c #555C5A",
"#. c #5A5D5C",
"$. c #59575E",
"%. c #504647",
"&. c #7B4D54",
"*. c #655B5B",
"=. c #785458",
"-. c #754B46",
";. c #5C634B",
":. c #5E6643",
">. c #5C6254",
",. c #55625D",
"<. c #5C625C",
"1. c #54645A",
"2. c #4E6259",
"3. c #636947",
"4. c #6C7546",
"5. c #757D47",
"6. c #62655C",
"7. c #65695C",
"8. c #6A6D5C",
"9. c #636855",
"0. c #6D7358",
"q. c #757C54",
"w. c #757B5B",
"e. c #565E62",
"r. c #5B5D62",
"t. c #5E5E69",
"y. c #425871",
"u. c #645B65",
"i. c #556262",
"p. c #5D6363",
"a. c #5D6B67",
"s. c #5D606A",
"d. c #5F6869",
"f. c #507173",
"g. c #626464",
"h. c #646964",
"j. c #696C64",
"k. c #63636A",
"l. c #666A6B",
"z. c #6B6D6B",
"x. c #686763",
"c. c #6C7266",
"v. c #6D726B",
"b. c #66716B",
"n. c #737565",
"m. c #6C6C71",
"M. c #686B73",
"N. c #6D7372",
"B. c #737473",
"V. c #777879",
"C. c #736E70",
"Z. c #860709",
"A. c #971717",
"S. c #8D0F0D",
"D. c #A7090A",
"F. c #B70805",
"G. c #AA180D",
"H. c #AD0C12",
"J. c #B10C16",
"K. c #A51618",
"L. c #B81517",
"P. c #932112",
"I. c #9B1927",
"U. c #8A172B",
"Y. c #AA1526",
"T. c #9B262D",
"R. c #A32122",
"E. c #A4230F",
"W. c #C6050A",
"Q. c #C5071B",
"!. c #C91116",
"~. c #C40F21",
"^. c #814D49",
"/. c #834D55",
"(. c #778430",
"). c #7B8649",
"_. c #7C8459",
"`. c #7C8471",
"'. c #828759",
"]. c #8C9657",
"[. c #939B5A",
"{. c #838C4A",
"}. c #99A75A",
"|. c #838A67",
" X c #969B66",
".X c #848975",
"XX c #909876",
"oX c #8A946A",
"OX c #9AA56B",
"+X c #A5B262",
"@X c #A8B37E",
"#X c #ABB25E",
"$X c #1F5D93",
"%X c #2E5B87",
"&X c #1C6291",
"*X c #386092",
"=X c #7B7A81",
"-X c #2B8593",
";X c #7F8785",
":X c #618682",
">X c #5FA09A",
",X c #4A9DA3",
"<X c #4DACB5",
"1X c #6FB1B0",
"2X c #428D91",
"3X c #5DB5CF",
"4X c #62B8D2",
"5X c #64B9E1",
"6X c #57D2D7",
"7X c #68D5D5",
"8X c #75CBD7",
"9X c #75D6EA",
"0X c #70D4E9",
"qX c #7DEAEC",
"wX c #838A84",
"eX c #878D88",
"rX c #8C928E",
"tX c #85958D",
"yX c #8D9B94",
"uX c #8A9791",
"iX c #939995",
"pX c #959C98",
"aX c #979B97",
"sX c #95A19B",
"dX c #9CA29D",
"fX c #8CA399",
"gX c #9EA4A0",
"hX c #98ACA3",
"jX c #8DB5B5",
"kX c #A5AAA6",
"lX c #A5AEA9",
"zX c #A7ABA5",
"xX c #ABB1AC",
"cX c #B1B4AE",
"vX c #AFB5B0",
"bX c #BDC0BD",
"nX c #8DD4D8",
"mX c #83D2E3",
"MX c #A4F2FE",
"NX c #A4D3D8",
"BX c #C2FEFF",
"VX c #D9FFFF",
/* pixels */
"X Z ).E 4 5 3.'.;.$ 4 {.}.Y o 9 [. X6   F #X'.& o E +XE o 6 ). XJ 4 A +XOX4 & >.",
"Z ).E P 8 { |.|.p 8 U  X4.0 p n.'.P 8 p {.].G 8 L q.5.F 9 | '.R S J 4. X4.9 :..X",
"}.].| #.g.O.>.O.z.m.| | } 6.B.z.O.O.z.x.O.O.x.*.x.6.} >.h.#.<.6.7.>.;.} 8.0.|.oX",
").G <.V.#.<.g.N.m.r.r.r.+.r.r.k.r.t.k.$.t.k.s.r.r.N.p.+.r.r.p.k.g.h.<.o.N.>.U 7 ",
"& 8 6.#.7.c.v.h.j.v.z.p.#.#.6.h.g.g.r.r.e.#.e.e.d.p.e.e.e.e.p.p.<.,.>.>.#.6.{ 4 ",
"o K h.#.7.c.v.h.h.z.h.#.@.#.<.h.g.p.r.e.@.,.i.i.p.p.i.@.,.,.i.p.p.<.>.>.O.6.;.3.",
"P w.j.#.h.c.c.h.g.l.g.o.o.,.p.h.p.p.e.e.@.,.,.i.a.i.,.1.i.i.i.i.p.p.<.>.6.;.q.@X",
").4.O.<.h.v.v.h.p.h.<.X.o.,.p.a.p.p.,.@.@.,.,.,.p.i.,.1.,.i.,.,.p.r.<.<.6.9.q.).",
"U S #.l.#.j.z.h.z.l.p.<.p.l.l.a.,.,.,.<.<.@.@.p.p.<.,.o.@.@.o.@.o.e.h.z.r.#.} S ",
"4 8 h.l.#.t - - y y i i a y y a a a D D ] [ [ ] [ X.o.@.<.#.[ p.o.#.p.l.r.h.H 9 ",
"4 ;.p.m.i ] rXrXwX`.B.b.h.v.N.h.b.,.] D a s s a 5 t y y i <.g.<.#.#.#.e.$.o.U ).",
"3.`.o.] ] zXdXlXxXlXlXkXvXxXxXvXxXxXxXlXkXgXgXkXdXaXpXiX] - g.X.#.#.o.o.r.X.q.|.",
"XX0.<.W h.gXiXaXrXuXyXiXpXsXsXpXpXyXsXpXdXdXdXdXkXgXgXkXxX] i h.e.e.#.#.t.r.g.' ",
"G 8 #.! #.xXrXh.h.p.<.@.,.<.<.,.<.b.b.p.o.o.o.o.o.<.g.iXzXB.t h.e.e.#.#.k.s.[ y ",
"$ G z.s h.xXaXrXaXiXuXtXtXuXyXrXpXp.e X X X X X   X X s aXiX5 h.#.#.#.#.r.g.K S ",
"0 .Xh. .z.cXdXiXeXeXtXtXuXyXyXuX]   + + > > > > : @ + + & 7.8 X.#.#.#.#.+.<.;._.",
"q..Xz.s p.cXrXh.g.h.a.a.1.2.b.i . : x A.D.D.J.Y.K.Z.x < . & & ' h.[ >.O.o.#.8.w.",
":.K g.s h.xXaXaXiXpXsXfXtXhXl.. > v K.F.W.W.Q.Q.Q.J.A.B k :   u #.o.>.o.g.<.7.p ",
"Z p g.] <.zXgXaXiXiXyXfXhXdXs @ x K.!.W.!.~.Y.I.I.I.I.T.U.l @ . ] <.o.} h.g.9.8 ",
"4 K g.+.] zXiXV.o.@.1.1.a.]   < A.F.D.D.Z.c l g 1 1 g g l C m . t <.} } #.j.>.H ",
"G .X#. .H kXkXiXuXsXyX;XrXQ + z K.G.x < @ .   = r = * O     w ; * O.} o.p.#.>.0.",
":.0.o.+.i dXkXpXkXpXyXsXcXQ : N T.x > % ` >X1X1X8XnXnXNXjX~ %     ] >.o.p.o.n.9.",
"P G #.#.D kXaXeXh.@...#.C., : C z : * / <XqX7X7X4XmXMXBXVXVXjX%   y c.O.r.o.>.9 ",
"4 4 <.+.a dXkXiX`.eXwXB.%.+ 2 N M ; r ) <X6X6X7X0X8X8X8XnXBXVX:XX - 1.o...h.} 9 ",
"$ | #. .t aXkXxX.XS $ o o . k C M . r _ -X9X0X9X9X9X9X9X8XmXnX>X% X o.<.p.O.J 3.",
":.XX<.r.- wXdX.X&   @ > # + h C b + = _ ( -X3X5X4X4X3X3X<X,X2X~ % X  .p.+.@.w.OX",
"_.|.#.k.- V.zXX.. k A.R.1 : j v B 1 . ` ) ^ &X$X%X^ ^ ( ( ) / a O   W d.@.o.3.4.",
"U S X.r.5 wXbXV . z L.D.h : j c K.c @ . ~ _ %X*X%X_ ) ) f.~ d + +   s k.i.a.:.7 ",
"7 S o.m.y X.rXu , b P.c 3 @ h Z.!.L.c < # f W / y./ ~ W * , g l m + w l.+.<.K Z ",
"6 3.#.m.] 8 * . + k v z , + h A.W.W.H.Z.j 1 @ @ . . + @ 1 x Y.T.N @ w k.p.,.U '.",
"4.XXh.r.l.<.] X.H G b b # + g S.D.F.W.!.L.D.Z.c c c S.A.Y.L.W.H.B @ + e ! ! 3. X",
"w.8.#.+.#.X.<.#.,.*.=.=.] u m B S.A.K.L.G.G.E.A.A.I.I.K.K.H.H.K.N , ; O * % H J ",
"p i k.r.r.#.#.#.#.#.*.u.k.u.u.=.&.&./.&.^.I I -.&.&.-.I -.^././.=.u.u.r.O.6.[ - ",
"8 H e.s.e.e.#.r.r.r.g.g.M.M.k.k.t.t.r.r.#.O.O.O.#.$.O.O.6.O.u.m.g.g.k.k.x.x.{ H ",
"J 0.p.k.g.6.g.g.g.g.g.g.z.h.h.g.p.r.r.#.#.<.6.g.N.l.g.,.o.g.l.p.h.j.l.z.V.j.R ).",
"0.w.g.l.g.g.h.h.g.g.g.g.g.6.<.#.r.r.p.r.r.g.h.l.d.p.p.p.<.#.p.l.v.c.v.N.V.6.q.].",
"3.{ #.=XC.#.l.B.B.l.z.z.g.X.X.h.h.g.r.u.#.$.M.s.N.M.e.s.e.e.M.N.6.7.j.B.;Xz.8.0 ",
"9 p O.6.z.v.n.} j.V.n.9.g.#.6.n.8.6.#.g.O.6.k.r.p.,.<.@.e.p.#.<.j.6.7.8.B.C.>.& ",
"6 G q.3.H L ).].3.G T ).n.p 0 4.'.3.K H U 4.} s G q.w.K K 3.4.3.H ' :.0.x.H Z Y ",
"H _.5.F 6 4.}.(.Z 0 ).].L & q OX[.A 6 K 5.Y 0 8 R  X3.0 J '. X0 o } |.w.8   T [."
};
