/* XPM */
static char *_d8c5d84b4714d9a950d4fe47de376bcNjifA2ghQYSluh30[] = {
/* columns rows colors chars-per-pixel */
"136 40 256 2 ",
"   c black",
".  c #010101",
"X  c #020202",
"o  c gray1",
"O  c #040404",
"+  c gray2",
"@  c #060606",
"#  c #070707",
"$  c gray3",
"%  c #090909",
"&  c gray4",
"*  c #0B0B0B",
"=  c #0C0C0C",
"-  c gray5",
";  c #0E0E0E",
":  c gray6",
">  c #101010",
",  c #111111",
"<  c gray7",
"1  c #131313",
"2  c gray8",
"3  c #151515",
"4  c #161616",
"5  c gray9",
"6  c #181818",
"7  c #191919",
"8  c gray10",
"9  c #1B1B1B",
"0  c gray11",
"q  c #1D1D1D",
"w  c #1E1E1E",
"e  c gray12",
"r  c #202020",
"t  c gray13",
"y  c #222222",
"u  c #232323",
"i  c gray14",
"p  c #252525",
"a  c gray15",
"s  c #272727",
"d  c #282828",
"f  c gray16",
"g  c #2A2A2A",
"h  c gray17",
"j  c #2C2C2C",
"k  c #2D2D2D",
"l  c gray18",
"z  c #2F2F2F",
"x  c gray19",
"c  c #313131",
"v  c #323232",
"b  c gray20",
"n  c #343434",
"m  c #353535",
"M  c gray21",
"N  c #373737",
"B  c gray22",
"V  c #393939",
"C  c #3A3A3A",
"Z  c gray23",
"A  c #3C3C3C",
"S  c gray24",
"D  c #3E3E3E",
"F  c #3F3F3F",
"G  c gray25",
"H  c #414141",
"J  c gray26",
"K  c #434343",
"L  c #444444",
"P  c gray27",
"I  c #464646",
"U  c gray28",
"Y  c #484848",
"T  c #494949",
"R  c gray29",
"E  c #4B4B4B",
"W  c #4C4C4C",
"Q  c gray30",
"!  c #4E4E4E",
"~  c gray31",
"^  c #505050",
"/  c #515151",
"(  c gray32",
")  c #535353",
"_  c gray33",
"`  c #555555",
"'  c #565656",
"]  c gray34",
"[  c #585858",
"{  c gray35",
"}  c #5A5A5A",
"|  c #5B5B5B",
" . c gray36",
".. c #5D5D5D",
"X. c gray37",
"o. c #5F5F5F",
"O. c #606060",
"+. c gray38",
"@. c #626262",
"#. c gray39",
"$. c #646464",
"%. c #656565",
"&. c gray40",
"*. c #676767",
"=. c #686868",
"-. c DimGray",
";. c #6A6A6A",
":. c gray42",
">. c #6C6C6C",
",. c #6D6D6D",
"<. c gray43",
"1. c #6F6F6F",
"2. c gray44",
"3. c #717171",
"4. c #727272",
"5. c gray45",
"6. c #747474",
"7. c gray46",
"8. c #767676",
"9. c #777777",
"0. c gray47",
"q. c #797979",
"w. c gray48",
"e. c #7B7B7B",
"r. c #7C7C7C",
"t. c gray49",
"y. c #7E7E7E",
"u. c gray50",
"i. c #808080",
"p. c #818181",
"a. c gray51",
"s. c #838383",
"d. c #848484",
"f. c gray52",
"g. c #868686",
"h. c gray53",
"j. c #888888",
"k. c #898989",
"l. c gray54",
"z. c #8B8B8B",
"x. c gray55",
"c. c #8D8D8D",
"v. c #8E8E8E",
"b. c gray56",
"n. c #909090",
"m. c gray57",
"M. c #929292",
"N. c #939393",
"B. c gray58",
"V. c #959595",
"C. c gray59",
"Z. c #979797",
"A. c #989898",
"S. c gray60",
"D. c #9A9A9A",
"F. c #9B9B9B",
"G. c gray61",
"H. c #9D9D9D",
"J. c gray62",
"K. c #9F9F9F",
"L. c #A0A0A0",
"P. c gray63",
"I. c #A2A2A2",
"U. c gray64",
"Y. c #A4A4A4",
"T. c #A5A5A5",
"R. c gray65",
"E. c #A7A7A7",
"W. c gray66",
"Q. c #A9A9A9",
"!. c #AAAAAA",
"~. c gray67",
"^. c #ACACAC",
"/. c gray68",
"(. c #AEAEAE",
"). c #AFAFAF",
"_. c gray69",
"`. c #B1B1B1",
"'. c #B2B2B2",
"]. c gray70",
"[. c #B4B4B4",
"{. c gray71",
"}. c #B6B6B6",
"|. c #B7B7B7",
" X c gray72",
".X c #B9B9B9",
"XX c gray73",
"oX c #BBBBBB",
"OX c #BCBCBC",
"+X c gray74",
"@X c gray",
"#X c gray75",
"$X c #C0C0C0",
"%X c #C1C1C1",
"&X c gray76",
"*X c #C3C3C3",
"=X c gray77",
"-X c #C5C5C5",
";X c #C6C6C6",
":X c gray78",
">X c #C8C8C8",
",X c gray79",
"<X c #CACACA",
"1X c #CBCBCB",
"2X c gray80",
"3X c #CDCDCD",
"4X c #CECECE",
"5X c gray81",
"6X c #D0D0D0",
"7X c gray82",
"8X c #D2D2D2",
"9X c LightGray",
"0X c gray83",
"qX c #D5D5D5",
"wX c gray84",
"eX c #D7D7D7",
"rX c #D8D8D8",
"tX c gray85",
"yX c #DADADA",
"uX c gray86",
"iX c gainsboro",
"pX c #DDDDDD",
"aX c gray87",
"sX c #DFDFDF",
"dX c gray88",
"fX c #E1E1E1",
"gX c #E2E2E2",
"hX c gray89",
"jX c #E4E4E4",
"kX c gray90",
"lX c #E6E6E6",
"zX c #E7E7E7",
"xX c gray91",
"cX c #E9E9E9",
"vX c #EAEAEA",
"bX c gray92",
"nX c #ECECEC",
"mX c gray93",
"MX c #EEEEEE",
"NX c #EFEFEF",
"BX c gray94",
"VX c #F1F1F1",
"CX c gray95",
"ZX c #F3F3F3",
"AX c #F4F4F4",
"SX c gray96",
"DX c #F6F6F6",
"FX c gray97",
"GX c #F8F8F8",
"HX c #F9F9F9",
"JX c gray98",
"KX c #FBFBFB",
"LX c gray99",
"PX c #FDFDFD",
"IX c #FEFEFE",
"UX c white",
/* pixels */
"IXxXnXcXzXcXxXvXvXvXvXvXvXvXvXvXvXvXvXvXvXvXvXvXvXvXvXvXvXvXvXvXvXvXvXvXvXvXvXvXvXvXvXvXvXvXvXvXvXvXvXvXvXvXvXvXvXvXvXvXvXvXvXvXvXvXvXvXvXvXvXvXvXvXvXvXvXvXvXvXvXvXvXvXvXvXvXvXvXvXvXvXvXvXvXvXvXvXvXvXvXvXvXvXvXvXvXvXvXvXvXvXvXvXvXvXvXvXvXvXvXvXvXvXvXvXvXvXnXkXcXcXxXmXvXLX",
"zX! y d g j d s d d d d d d d d d d d d d d d d d d d d d d d d d d d d d d d d d d d d d d d d d d d d d d d d d d d d d d d d d d d d d d d d d d d d d d d d d d d d d d d d d d d d d d d d d d d d d d d d d d d d d d d d d d d d d d d d d d d d d d d d i j h s j u R cX",
"NXp   X                                                                                                                                                                                                                                                                 .   a NX",
"jXs #     o X o                                                                                                                                                                                                                                                 +   + o   + h jX",
"vXf     o       . . . . . . . . . . . . . . . . . . . . . . . . . . . . . . . . . . . . . . . . . . . . . . . . . . . . . . . . . . . . . . . . . . . . . . . . . . . . . . . . . . . . . . . . . . . . . . . . . . . . . . . . . . . . . . . . . . . . . . . .   X         a mX",
"xXp . @ o   O                                                                                                                                                                                                                                                     +   X @ . i cX",
"nXp   .     @   . . . . . . . . . . . . . . . . . . . . . . . . . . . . . . . . . . . . . . . . . . . . . . . . . . . . . . . . . . . . . . . . . . . . . . . . . . . . . . . . . . . . . . . . . . . . . . . . . . . . . . . . . . . . . . . . . . . . . . . .   X         f vX",
"vXs       .   .                                                                                                                                                                                                                                                   .     o . p vX",
"zXd .         X o X . .   .   X .     O     O   X X   @       X   #   X O     X   O X   .     X     O   X   .   X   . .     .   o X X   O   . . .       X                                                                                                         .     X   s vX",
"zXg   @ o @ X     X     @   X o X .   X   X   # o   X   + X     +   X   . @ .   + X     X @     o       @ o   X   . o   $ O   @     . X   X X X .     . .                                                                                                         .     X   s vX",
"bXp X .   . o X X . & . X X     . o X +   #     . @ .     o o     X   @     X +     + O     #   O X + o   . @     X O         .   X . + O o   X .     .       .                                                                                                   .     X   s vX",
"xXs o   # $   o         . + @     O   X O   #         o % X . o   .   X   X @   o     +       o   +   X   . . + +   O @ X X O . o   .   X     @                                                                                                                   .     X   s vX",
"vXk . a ^     $.*.l f   < J @ J n .   W 7.& L P - X w 6.1.. [ 2.8   O o & p._...X q 0.w.> . ; _ =   @ g.J $ g.).Q : / 2   L O.h w.X.+ 9 C.l.%             . .                                                                                                     .     X   s vX",
"bXu   Q pXi   n.b.;.J.X m >Xi k.B.. . n.OXk eX,Xg.  | bXs.- Z.mXf.$     S 8Xu.:Xc +.rX*.<   y aXP . < 5XT G tXs.%Xz ].F X n.a.x.iX7.* J.R.K * O   . .   . . .                                                                                                     .     X   s vX",
"zXj @ U PXO.  k.g.:.R.  v XX* z.tX0 @ '.-Xm 3XB }.p X..X@   D.T.,Xi   X ,.I.O D.t. .~.    + h vXz.  n pXR h.x.# F.6.v.*.  m.*.a.V.  $ $XY + +     O + o .                                                                                                         .     X   s vX",
"bXd   Q bXW.O c.g.:.~.  n '.: k.ZXN   =X*XN %Xy R.M ] ].# . n.b.2Xs X   F.2.+ 7.n.| W.& O   p BX_.% E DXW L.1.. e.V...!.  E.=.,.s.. # %X_     @   @ % @       .                                                                                                   .     X   s vX",
"vXa o E 5X}.2 z.h.,.T.  s '.k p.ZX0.7 wX&Xz _.K &X0 ..{.o . c.}.XX9 O   G.[   ! I.| |.6   + s mXlX4 X.UXI E.:.  $.N.} {.. U. .,.d.X O D.b..       4 F.l   +   o                                                                                                   .     X   s vX",
"mXs   T !.(./ k.f.=.(.  8 Q.l y.zXx.H GX@Xh <X(.6.. | |.0   A.LXj.    o C.O.  a [.( @X/ 1   s fX:XK z.IXQ P.4.o L J.T ].g Z.P 4.x.# o L :Xd . # + $ } 4       .                                                                                                   .     X   s vX",
"vXg X W K.z.8.x.z.%.Y.+ # L.m i.R.U.8.cX.Xj 7XdX<.  ..FXL.; M.UX7.    X D...  r [.R eX<Xx X f 1XZ.s.-XxX) R.>.  A I.u }.@.Y.0 -.vXj.X 2 [.r.    + .   +     #                                                                                                     .     X   s vX",
"vXp   / H.K Q.V.h.-. XO o H./ y.a.+X%XK.$Xz $X#.~.V { *Xz   G.ZXu.O . X Z.o.  e {.~ 6XF X   y 6Xs.].Q.;X7.E.,.O D R.8 |.d. X@ 4.H.a     ) 7Xr     . $                                                                                                             .     X   s vX",
"mXt + U Q.w Q._.d.+.7Xr X K.( p.y.+XMXh.XXh >Xb 6.k... XX   F.!.D.* o   9.p.+ w (.n }.M O + f 5X` aX^.!.5.C.>.  Z G., n.!.XX$ 8.j.  # o 7 $Xo.. +   X   # O   +                                                                                                   .     X   s vX",
"lXc   ~ =X@ x.dXj.G tXc   L.W u.8.C.3X:.XXz <XN %.A. .|.  o D.z.U.c     [ (.  x A.2 -XD     p 5XV gXN.I.0.8.v.o R x.  O.cXI.$ ,.s.+     X ~.6..   X   o                                                                                                           .     X   s vX",
"MXr   / oXO X.UXj.5 3XS   G.| i.0.<.Y.` 6Xn ;XM =.J.O..X    F.p.p.3.    H $X: ^ m.2 ,XL     l 4Xx &X%.Y.0.V #X- *.n.X U UX9.  5.i.o @ .   !.q.X   d w.t     .                                                                                                     .     X   s vX",
"xXg X L +Xo i jXk.  K.t.O F.) L.g.w g E 0XQ >X{ !.O.{ XXq O K.8.*.!.=   t +XP q.h.@ <XG   + y 9Xe m 7 P.N.x %Xc t.A.X k dX .  6.B.> #   2 @X$..   u d.w .   O                                                                                                     .     X   s vX",
"mXt   Q `.@ $ S.a.X V |.s.E.i k.,.&   E 2XB -XdXD.& ~ cX7X( N.5.A OXr @   s.@XOX} + {.A     u '.7   + U.M.o z.#X*X~   - R.I   #.yX;X} 5.C.#Xy   X X X . . .                                                                                                       .     X   s vX",
"lXk   * q     p e X . b <.M   1 2   O r _ % A V : o ; V L 6 y 3 % M #     4 t.=.*   w =     O 6 X     U x o 2 j.*.%   # v - . < P U 7 3.f.d   X . . . .                                                                                                           .     X   s vX",
"nXs +     O X   X   . +       X     X                 @   X   .   O     .     o   O     o +       O .     o +   +   .   +     o   X     o                                                                                                                         .     X   s vX",
"vXr O   o     . .   O   @ +   .       +   O     O   X     o   .   .   . o O         o   X   . @ X     O o   .     . O o   X o .   .   O     +                                                                                                                     .     X   s vX",
"nXd o O   . X         @       o . X         . X   X X     +     +   O .     O X   .   O X   @     X     . # X X . @     O       o   O X X     .               .                                                                                                   .     X   s vX",
"zXp   O   . .   .   o . . X         X . X . X   .     +       X     X   . $       .       .   X     + . .   o         .     $   X         . X o             . .                                                                                                   .     X   s vX",
"bXj .   o   . .   +         @   O         .       @           o   X o       %     X     %   .   .         @   +   . o O     +     X X @   o                                                                                                                       .     X   s vX",
"vXi o . .     . .   o . . +           .     . . O   X o     @   .         @   . .   . o   O       X   o .   X     .   X X     X o       .   X                                                                                                                     .     X   s vX",
"vXs           .                                                                                                                                                                                                                                                 .   .       s cX",
"mXp         @   . . . . . . . . . . . . . . . . . . . . . . . . . . . . . . . . . . . . . . . . . . . . . . . . . . . . . . . . . . . . . . . . . . . . . . . . . . . . . . . . . . . . . . . . . . . . . . . . . . . . . . . . . . . . . . . . . . . . . . . .   @         p mX",
"cXp   + o   O                                                                                                                                                                                                                                                     O   o +   p vX",
"bXf     o       . . . . . . . . . . . . . . . . . . . . . . . . . . . . . . . . . . . . . . . . . . . . . . . . . . . . . . . . . . . . . . . . . . . . . . . . . . . . . . . . . . . . . . . . . . . . . . . . . . . . . . . . . . . . . . . . . . . . . . . .       o     f nX",
"lXs +     + X X                                                                                                                                                                                                                                                 o o O     + s zX",
"BXp   .                                                                                                                                                                                                                                                                 .   p BX",
"xX! y s g j d s d d d d d d d d d d d d d d d d d d d d d d d d d d d d d d d d d d d d d d d d d d d d d d d d d d d d d d d d d d d d d d d d d d d d d d d d d d d d d d d d d d d d d d d d d d d d d d d d d d d d d d d d d d d d d d d d d d d d d d d d a d j g d y ! xX",
"IXxXnXcXlXcXxXbXvXvXvXvXvXvXvXvXvXvXvXvXvXvXvXvXvXvXvXvXvXvXvXvXvXvXvXvXvXvXvXvXvXvXvXvXvXvXvXvXvXvXvXvXvXvXvXvXvXvXvXvXvXvXvXvXvXvXvXvXvXvXvXvXvXvXvXvXvXvXvXvXvXvXvXvXvXvXvXvXvXvXvXvXvXvXvXvXvXvXvXvXvXvXvXvXvXvXvXvXvXvXvXvXvXvXvXvXvXvXvXvXvXvXvXvXvXvXvXvXvXxXcXzXvXmXxXIX"
};
