/* XPM */
static char *_749e1e37d1e4d76c9d4347606c15725pTFR4FEulbHODFyi[] = {
/* columns rows colors chars-per-pixel */
"40 40 177 2 ",
"   c None",
".  c #3B0C04",
"X  c #3F0C09",
"o  c #450102",
"O  c #4C0503",
"+  c #430904",
"@  c #4C0C04",
"#  c #420D09",
"$  c #4D0A0C",
"%  c #5B0102",
"&  c #540B03",
"*  c #550A0A",
"=  c #441709",
"-  c #420B10",
";  c #4A1718",
":  c #511E1F",
">  c #620209",
",  c #67080F",
"<  c #740200",
"1  c #7A0102",
"2  c #770B02",
"3  c #7D0A06",
"4  c #7B000F",
"5  c #76030C",
"6  c #7C1103",
"7  c #6B0913",
"8  c #641711",
"9  c #631812",
"0  c #6A171D",
"q  c #66181A",
"w  c #6A181D",
"e  c #6D1211",
"r  c #7C1015",
"t  c #4D1C23",
"y  c #6F1C21",
"u  c #771E21",
"i  c #5B2A31",
"p  c #5D3231",
"a  c #6A3A3A",
"s  c #4E443C",
"d  c #55504F",
"f  c #5C564F",
"g  c #545452",
"h  c #585556",
"j  c #5E5C5D",
"k  c #674547",
"l  c #6E4042",
"z  c #614F4C",
"x  c #714343",
"c  c #744948",
"v  c #784D4C",
"b  c #635354",
"n  c #615E5E",
"m  c #735C5D",
"M  c #5E615D",
"N  c #60645C",
"B  c #5F6161",
"V  c #656363",
"C  c #696566",
"Z  c #6C6B66",
"A  c #696768",
"S  c #676A69",
"D  c #6D6B6B",
"F  c #756C6C",
"G  c #796B6D",
"H  c #716E63",
"J  c #6F7067",
"K  c #73776C",
"L  c #726F70",
"P  c #737272",
"I  c #787677",
"U  c #7C7B75",
"Y  c #7A7778",
"T  c #7C7A7A",
"R  c #830202",
"E  c #8B0203",
"W  c #8C0D02",
"Q  c #8C0E0A",
"!  c #860D0B",
"~  c #9A0006",
"^  c #910C02",
"/  c #930C0C",
"(  c #9E0A0C",
")  c #821204",
"_  c #99110D",
"`  c #8F0D12",
"'  c #92061C",
"]  c #971111",
"[  c #A40E0A",
"{  c #BE0C0F",
"}  c #A2130C",
"|  c #BC110F",
" . c #A20216",
".. c #B40916",
"X. c #BE0E13",
"o. c #B81A12",
"O. c #BB101E",
"+. c #B3181E",
"@. c #961424",
"#. c #D60704",
"$. c #D60907",
"%. c #DE0E04",
"&. c #DE0C0B",
"*. c #D6030D",
"=. c #DB1005",
"-. c #DF130B",
";. c #C60E11",
":. c #C90B12",
">. c #C7011B",
",. c #C30C1C",
"<. c #D50B13",
"1. c #DC0D13",
"2. c #D60318",
"3. c #D50E1F",
"4. c #DD0817",
"5. c #CE1312",
"6. c #D41415",
"7. c #DB1414",
"8. c #D3131B",
"9. c #E10E0D",
"0. c #E90B0F",
"q. c #E40D06",
"w. c #E1100D",
"e. c #EB0810",
"r. c #E7041A",
"t. c #E01111",
"y. c #CD1420",
"u. c #C7112A",
"i. c #CD1A24",
"p. c #DA1228",
"a. c #8B3741",
"s. c #855D5C",
"d. c #8C5E5D",
"f. c #955254",
"g. c #82605E",
"h. c #8C615F",
"j. c #886968",
"k. c #8A6768",
"l. c #9A6F6D",
"z. c #857B75",
"x. c #8B7C77",
"c. c #837E7F",
"v. c #8D7672",
"b. c #9D7575",
"n. c #987E75",
"m. c #947A79",
"M. c #9C797C",
"N. c #AE6169",
"B. c #81817D",
"V. c #95827B",
"C. c #827F80",
"Z. c #967F80",
"A. c #7F8480",
"S. c #858484",
"D. c #888586",
"F. c #898A87",
"G. c #8C8B8B",
"H. c #948282",
"J. c #9A8585",
"K. c #938D85",
"L. c #9A8887",
"P. c #9A8588",
"I. c #918D8E",
"U. c #8C9086",
"Y. c #8C958B",
"T. c #909286",
"R. c #90918E",
"E. c #99908F",
"W. c #968F90",
"Q. c #949293",
"!. c #989696",
"~. c #9B9292",
"^. c #9A9899",
"/. c #9D9B9C",
"(. c #A38C8A",
"). c #B88F8F",
"_. c #A09294",
/* pixels */
"                                                                                ",
"                                                                                ",
"                                                                                ",
"                                                                                ",
"                                                                                ",
"                                                                                ",
"                                                                                ",
"                                                                                ",
"                                                                                ",
"                                                                                ",
"                                                                                ",
"                                                                                ",
"                                                                                ",
"                      $.7.t.0.0.9.w.9.9.&.9.w.w.9.9.9.9.9.9.9.9.q.              ",
"                  p.+.Q 2 2 R R R 3 3 3 < 2 3 ! Q / / / ] ] ] _ } o.8.          ",
"                u.' > @ . . + + + X # # X # # # O O O O o o o o o % E ..2.      ",
"              i.7 t k m V.H.Z.Z.J.J.J.J.J.J.L.J.J.J.J.J.m.m.m.m.s.l - %  .3.    ",
"            1.+.- C.j P F.F.F.F.Q.Q.Q.Q.Q.Q.Q.Q.Q.Q.Q.Q.I.I.Q.W._.G C i 4 ,.    ",
"            1.( : ^.G.D C C C C C C V V V V C V V V V V j j j n F G L b.% ..0.  ",
"            <.E : /.D.L Y Y Y Y T T T T Y T T T Y Y Y Y Y Y T T F c.Q.M., ~ 9.  ",
"            7.R a G.c.D V V V V V V V V n V V B V n n n C C C C F Y G.J.* E &.  ",
"            7.R x G.P h C C C C V V V V V V V V j j j j j j j j d V A.K.+ 1 #.  ",
"            6.R x ^.Q.C.Q.Q.I.I.I.I.G.G.G.G.I.I.I.I.G.G.F.F.F.F.T S.Y.K.= 6 -.  ",
"            6.1 v ^.D.D V V V V V V V V n V V V j j j j j j j j g N T x.= ) -.  ",
"            6.1 c Q.S.I S.S.D.D.D.D.D.D.D.D.D.D.S.S.S.S.T T B.B.B.U z.b.& W q.  ",
"            5.1 h.~.T L D D D D D D D D A D A A C C C C j j M M N U H.b.& ^ %.  ",
"            5.1 d.D.D D I I P P P P P P P P P P D D D D P P P P K J U (.@ W %.  ",
"            5.1 l.~.G./.Q.Q.!.!.!.!.~.~.!.~.!.!.Q.Q.Q.Q.Q.Q.Q.Y.K.T.Y.V.& ^ =.  ",
"            5.< k.Q.D D D D D D A D A A A A A A C C C C S C V C Z H U.n.% [     ",
"            5.1 s.Y g n D D D D A A A A C A A A C C V V S B C A f s z.d.1 X.    ",
"            5.Q p Q.D.c.Q.Q.Q.Q.Q.Q.Q.Q.Q.!.!.!.Q.Q.R.R.Q.G.Q.B.z.v.M.a. .4.    ",
"              } $ m b b E.E.~.~.~.~.~.~.~.~.~.~.W.W.Q.Q.I.I.I.n z ).N.@.>.      ",
"              6.5 o x g.V.V.V.V.J.P.P.P.P.P.P.P.P.P.P.P.J.(.H.j.j.f.` y.r.      ",
"                O.1 r e 8 9 8 9 q 0 w w w w w w w w w w y w w w u 1 { *.        ",
"                  4.<.;.{ | | | ;.:.:.:.:.:.:.:.:.:.:.:.8.:.:.8.8.<.e.          ",
"                                                                                ",
"                                                                                ",
"                                                                                ",
"                                                                                ",
"                                                                                "
};
