/* XPM */
static char *a3f15e9907ef4129b7d010360704454ataiuW5wNiePB68h7[] = {
/* columns rows colors chars-per-pixel */
"40 40 216 2 ",
"   c #060C00",
".  c black",
"X  c #0C1203",
"o  c #161A04",
"O  c #0F0D09",
"+  c #201F14",
"@  c #192107",
"#  c #22250B",
"$  c #262203",
"%  c #2D3608",
"&  c #36380D",
"*  c #262A12",
"=  c #22251B",
"-  c #272B16",
";  c #342E19",
":  c #2D3312",
">  c #2D321D",
",  c #253016",
"<  c #35361A",
"1  c #1C2427",
"2  c #262C2C",
"3  c #272D24",
"4  c #2E332B",
"5  c #283429",
"6  c #353923",
"7  c #3B3D2C",
"8  c #363829",
"9  c #262D32",
"0  c #263031",
"q  c #2A3436",
"w  c #343837",
"e  c #423E22",
"r  c #3C441A",
"t  c #3F470B",
"y  c #3B4123",
"u  c #3E422D",
"i  c #38423C",
"p  c #424B1A",
"a  c #464500",
"s  c #63731E",
"d  c #424A23",
"f  c #45482C",
"g  c #4A5328",
"h  c #51572F",
"j  c #434B34",
"k  c #474A38",
"l  c #4D523C",
"z  c #4A5231",
"x  c #56593A",
"c  c #5C653B",
"v  c #556028",
"b  c #62683A",
"n  c #646935",
"m  c #69733C",
"M  c #737F3B",
"N  c #353D43",
"B  c #3B4443",
"V  c #3C4944",
"C  c #3B4448",
"Z  c #424D4C",
"A  c #474B45",
"S  c #44514E",
"D  c #4C5446",
"F  c #555A4A",
"G  c #5A5D4C",
"H  c #575A47",
"J  c #454E51",
"K  c #484F51",
"L  c #455051",
"P  c #4B5454",
"I  c #4F5B56",
"U  c #4C545A",
"Y  c #4E595D",
"T  c #525454",
"R  c #555B54",
"E  c #5A5E54",
"W  c #52555B",
"Q  c #545D5C",
"!  c #595D5C",
"~  c #5C634B",
"^  c #5C6644",
"/  c #5C6256",
"(  c #55615D",
")  c #5A625C",
"_  c #5C655B",
"`  c #636A4C",
"'  c #666947",
"]  c #6C734B",
"[  c #6D7641",
"{  c #727948",
"}  c #616655",
"|  c #666B56",
" . c #62655C",
".. c #656A5B",
"X. c #696C5C",
"o. c #736F55",
"O. c #6C725C",
"+. c #6C7356",
"@. c #727A54",
"#. c #757B5A",
"$. c #4E5764",
"%. c #4E5962",
"&. c #555D62",
"*. c #5A5D62",
"=. c #565869",
"-. c #5D5F71",
";. c #566063",
":. c #5C6363",
">. c #5C646B",
",. c #5E686D",
"<. c #5B6766",
"1. c #5C6571",
"2. c #5E6873",
"3. c #576070",
"4. c #626563",
"5. c #646A65",
"6. c #6A6D63",
"7. c #62656B",
"8. c #63696B",
"9. c #6A6C6B",
"0. c #6C7265",
"q. c #6E726D",
"w. c #747A63",
"e. c #747664",
"r. c #626B75",
"t. c #6B6E72",
"y. c #656E79",
"u. c #666672",
"i. c #6D7474",
"p. c #6B747B",
"a. c #6F7A7A",
"s. c #737877",
"d. c #78873B",
"f. c #798549",
"g. c #79815A",
"h. c #79835D",
"j. c #7B8367",
"k. c #76807C",
"l. c #88894A",
"z. c #8B984C",
"x. c #909F4F",
"c. c #858D59",
"v. c #8A945A",
"b. c #979C59",
"n. c #99A45F",
"m. c #868A69",
"M. c #8A9364",
"N. c #8B956C",
"B. c #929B66",
"V. c #8F8F72",
"C. c #A29D67",
"Z. c #9BA56C",
"A. c #A8B47C",
"S. c #A8A852",
"D. c #6C7681",
"F. c #6E7A84",
"G. c #727C85",
"H. c #757E89",
"J. c #787883",
"K. c #778285",
"L. c #788384",
"P. c #7A858C",
"I. c #7E898C",
"U. c #7F8B87",
"Y. c #7E8A93",
"T. c #868C8F",
"R. c #838C96",
"E. c #838E98",
"W. c #86919A",
"Q. c #8A949D",
"!. c #8C999E",
"~. c #899595",
"^. c #929C9D",
"/. c #88928C",
"(. c #90A199",
"). c #A9AE8B",
"_. c #8C95A3",
"`. c #8E99A2",
"'. c #8E97A8",
"]. c #919BA5",
"[. c #979DA5",
"{. c #92A0A6",
"}. c #96A1AA",
"|. c #9CA6AD",
" X c #9DA9AD",
".X c #99A4A4",
"XX c #9CA6B1",
"oX c #9FACB4",
"OX c #A1AEB4",
"+X c #A6B2B5",
"@X c #A5B2B9",
"#X c #ABB6BB",
"$X c #ACB9BC",
"%X c #ACB8B4",
"&X c #B1BCBC",
"*X c #B1B9B8",
"=X c #A9B0AD",
"-X c #B4C2BC",
";X c #AEC0B5",
":X c #ACBAC2",
">X c #B1BEC5",
",X c #B5C1C4",
"<X c #BCCAC4",
"1X c #BCC6CC",
"2X c #BDC9CC",
"3X c #B9C5C5",
"4X c #BAC6D1",
"5X c #BFCCD0",
"6X c #BFD1C9",
"7X c #C1CCCF",
"8X c #C5D2CB",
"9X c #C2CCD3",
"0X c #C6D2D4",
"qX c #CAD5D5",
"wX c #CCD6DB",
"eX c #C9D6DB",
/* pixels */
"  % d.M o X m c.` X @ f.n.n . # b.C.< O a S.C.$   b n.M   : [ B.G * & v.A.% X k ",
"p v.m g - A N.g.u > h B.{ r 6 w.c.n ; ; l.l.x ; f #.f.t > H h.] A j ' Z.M.: z m.",
"x.B.~ 5.4.!  ...6. .G F F E 0.6.F F 6.6.G H X./ _ R F .. .E / E 9.4.E F 6.O.g.M.",
"M d 4.u.! ) 4.s.6. .! W 7.4.R R ! Q :.Q Q :.Q U Q 8.&.*.:.! 4.:.4.:.! R t._ ` p ",
"@ = 4.T 4.q.q.5.5.9.u.y.=.*.4.5.:.:.;.Q Q Q Q Q <.:.( Q &.*.! ) ) ! / ) W :. .+ ",
"X A 9.9.4.q.q.5.4.4.7.-.=.*.:.5.:.:.;.Q &.&.&.Q <.:.( ( &.;.) ) ) ) / / :.:.R ..",
"h @.E ! 4.q.q.4.) ) ) Q Q Q :.5.>.:.! Q &.&.&.Q <.) ( ( ( ( ( ( ( ) / / :.4.O.).",
"c.] E 4.4.q.q.4.! ! ! ! R ! :.8.>.:.) Q &.&.Q ! <.( ( ( ( ( ( ( ( ( ) ) ) _ O.h.",
"c d F 5.*.4.6.q.6.5.:.P <.<.:.:.Q Q Q Q :.&.Q <.( ( ( ( ( I :.I &.Q 5.8.<.Q / j ",
"@ : X.) ! ! ) _ q.:.Q W L L P P Z Z J Z J P P Z S S S S V V I :.( ;.Q 5.W :.F , ",
"o ^ / 4.8.4._ ) I q J ~.K.K.L.L.K.K.L.K.L.I.I.L.a.a.a.a.i.k.<.V I Q :.U &./ ^ f.",
"' j.X.! :.*.I S L.R. X2X7X7X9X9X9X9X9X0XwX0X0XwXwXwXqXqX9XqX+X^.a.q W W &.R ^ B.",
"N.` F ! ! Q w k.&X0X,X+XQ.Q.Q.Q.!.`.`.`.`.].].`.`.`.].].~. X,X9X$XI.S U ,.>.4.R ",
"< : F R :.B k.8X,XP.K.G.>.>.,.,.2.2.2.2.2.r.r.2.2.2.r.r.>.G.Y.P.@X0XU.P >.,.U 3 ",
"o y ..) 7.9 /.<X#X,X].[.!.!.!.!._._._._._.'._._._._.`.`.]._.].@X3X2X.X1 W 8.D y ",
"< m.e.9.U N .X0X.XR.p.U ,.,.,.2.3.1.1.1.1.1.1.1.1.1.1.1.2.r.G.R.!.3X%XB P ) ~ g.",
"m.V.F :.J U 2X&X@X|.W.W.].].].].].].].].].].].].].].].].`.]._.oX@X,X9X&.B R | O.",
"' l R 4.N ;.,X+X!.Q.>.2.,.,.,.,.2.2.2.2.2.2.2.2.>.2.2.2.r.>.1.R.Q.#X1X&.0 _ X.j ",
"7 8 ! :.N T.8X-X+X{.]._.].].].].].].].].].].].].].].].].`.].Q.}. X@X1X!.2 5...6 ",
"* k 4.Q 9 !.<X%X!.W.r.y.2.2.2.2.2.2.2.1.2.2.2.2.2.2.2.2.2.>.>.P.{.:X9XOXw E } l ",
"h #.6.Z C 1X1X@X!.`._._.W.W.W.W.W.W.W.W.W.W.W.W.Q.Q.Q.Q.W.}._.}.!.:X,X2XR D 0.O.",
"] ' E w J 4X4X$XoX|.p.r.y.r.y.r.r.r.r.r.r.r.r.r.y.y.y.y.y.r.F.}.OX>X,XwXK 4 X.O.",
"f 6 / w p.9X<X,X!.`.W.!.R.R.R.R.E.R.R.R.R.R.R.R.R.R.R.R.R.W.`.W.W.:X1X2Xs.4 } 6 ",
"# o E O ].1X-X<X2XoX>X[.G.G.G.G.H.H.H.H.H.H.H.H.D.D.D.D.P._.:X@X4X0X1X7X=X= l : ",
"o x k 2 +X2X%X(.a.;.;.Y %.%.%.%.%.%.%.%.$.$.$.$.$.$.$.$.$.$.$.$.Y.!.#X2X&X4 : { ",
"x ).+ T 3X#X<X~. X}.}.|.|.|.|.|.|.XXXXXXXXXXXXXXXXXXXXXXXXXXXXXX{.~.-X&X1X_ d ).",
"m.m.= T *X~.<X<X1X9X2X9X9X9X9X9X9X9X9X9X9X9X9X9X9X9X9X9X9X9X9X5X0X6X8X^.#X4.f ] ",
"' e k 4 [.+X-X*X,X&X#X#X#X$X$X$X$X$X#X#X#X#X#X#X#X#X#X#X#X#X#X#X;X%X%X&X|.2 8 y ",
"$ e X.i A A V V V B q 9 q q q q q q q q q q q q q q q q 0 0 0 0 i 5 5 2 1 w l 6 ",
"& o.} 9.! Q ! Q &.Y J J J J J J L L L S S S S S Z Z Z Z P P P S S V B B U T H #.",
"' V.F 4.:.:.) ) :.:.Q &.Q W Q Q Q Q Q Q Q I I Q ( ) ) ) ( ( ( ( ;.&.&.:.W E ` M.",
"o.e.6.:.*.*.) ) ;.:.:.<.:.&.;.( ( ;.;.( ( ( ( ( ( ! ! R R Q Q Q Y %.&.:.! } ` g ",
"w 4 t.8.*.&.&.&.&.&.:.:.>.>.:.:.;.&.&.&.:.( Q Y :.:.( ) R R ! :.>.>.,.) / | G > ",
"= A *.:.:.:.>.>.:.:.:.:.8.8.8.8.:.;.&.&.( ( ! Q &.:.( R R ! :.>.>.<.8.:.0.~ l j ",
"j w.4.9.4.4.,.,.:.:.5.5.4.4.5.8.,.>.:.) ( / / _ q.9.5.4.) ) :.<.7.8.t.8.s. .] v.",
"#.w.! 7.8.8.8.8.5.5.5.5.) ) ! Q *.:.:.:.E / } ..8.7.:.:.:.:.<.t.t.i.p.t.J.6.@.v.",
"` k ! t.t.7.s.i.8.i.5.q.4.! ) 9.4.7.*.4._ R 6.5.9.t.W >.*.:.s.t.7.t.i.t.T.s.X.< ",
"# 6 5.:.9.6.w.~ 0.0.| } 4.4...} X...R  .E G  . ._ E ! ! :.) R _ 8.:._ 5.5.9.| # ",
"* x j.~ 3 l c.n.c d v c.w.> : { B.b 6 u ' @.F 8 y g.j.f u ^ @.` 5 A ` #./ 6 & m ",
"x m.] z > ] z.s % d d.f.z * p n.z.t # x { b 7 7 ] v.c r h @.M.r o F g.h.> o n b."
};
