/* XPM */
static char *aa15d9457b4142168fd34c28bc0f1c97BQXCdzxtZXITXVhi[] = {
/* columns rows colors chars-per-pixel */
"40 40 229 2 ",
"   c #020500",
".  c #0A0D02",
"X  c #050800",
"o  c #0D1301",
"O  c #151903",
"+  c #1B1E00",
"@  c #151806",
"#  c #181E13",
"$  c #221F07",
"%  c #1D2307",
"&  c #212501",
"*  c #292D0E",
"=  c #23260E",
"-  c #2D3508",
";  c #323B0A",
":  c #232913",
">  c #272918",
",  c #2E3619",
"<  c #343818",
"1  c #15342B",
"2  c #1B382F",
"3  c #1B372E",
"4  c #1A2E32",
"5  c #1D3B32",
"6  c #1B3135",
"7  c #1F2D2D",
"8  c #2D3523",
"9  c #20362D",
"0  c #3B3E2E",
"q  c #363A26",
"w  c #282F32",
"e  c #223432",
"r  c #223D34",
"t  c #293C36",
"y  c #243E39",
"u  c #2D3C3B",
"i  c #2B3436",
"p  c #333D3B",
"a  c #383D36",
"s  c #272925",
"d  c #3C431B",
"f  c #3C4617",
"g  c #3C480F",
"h  c #1F4136",
"j  c #3C4222",
"k  c #234136",
"l  c #25423A",
"z  c #2A443C",
"x  c #2A493D",
"c  c #2A4739",
"v  c #33423D",
"b  c #3B463D",
"n  c #374837",
"m  c #41470B",
"M  c #444714",
"N  c #4B571E",
"B  c #434A29",
"V  c #424926",
"C  c #475323",
"Z  c #535927",
"A  c #474D32",
"S  c #494F34",
"D  c #434D3A",
"F  c #424536",
"G  c #4D5334",
"H  c #4A533B",
"J  c #515534",
"K  c #565C35",
"L  c #54583A",
"P  c #586536",
"I  c #51632B",
"U  c #636939",
"Y  c #6A723B",
"T  c #6A7434",
"R  c #6B6F2F",
"E  c #333D41",
"W  c #383D45",
"Q  c #2D4542",
"!  c #2E4C43",
"~  c #2D4649",
"^  c #334443",
"/  c #384442",
"(  c #334C45",
")  c #3A4C46",
"_  c #344E49",
"`  c #3C4D4C",
"'  c #3E464D",
"]  c #335245",
"[  c #3C5246",
"{  c #35534B",
"}  c #3A544D",
"|  c #3C5A4D",
" . c #394B53",
".. c #3D5551",
"X. c #3D5C53",
"o. c #3B5757",
"O. c #3E6355",
"+. c #4B4D44",
"@. c #414C49",
"#. c #434946",
"$. c #4C5444",
"%. c #43534B",
"&. c #445A4C",
"*. c #4C5A4C",
"=. c #4F5847",
"-. c #535645",
";. c #545B43",
":. c #51574B",
">. c #545C4C",
",. c #595E4B",
"<. c #435553",
"1. c #4B5452",
"2. c #425C55",
"3. c #4B5A56",
"4. c #4E5458",
"5. c #445D5A",
"6. c #4B5C5B",
"7. c #43515E",
"8. c #555B55",
"9. c #5A5E53",
"0. c #535C5C",
"q. c #595D5C",
"w. c #505556",
"e. c #4A4D57",
"r. c #5B6145",
"t. c #56624C",
"y. c #5C624D",
"u. c #5F6948",
"i. c #426155",
"p. c #4D6556",
"a. c #44635B",
"s. c #4B645C",
"d. c #4B6A5C",
"f. c #4A6857",
"g. c #5B6255",
"h. c #55615C",
"j. c #5B625B",
"k. c #526A5C",
"l. c #5D685D",
"z. c #596452",
"x. c #46624F",
"c. c #646B4D",
"v. c #656A46",
"b. c #6A7345",
"n. c #6C754B",
"m. c #677144",
"M. c #747D48",
"N. c #606651",
"B. c #636B55",
"V. c #686D54",
"C. c #61665D",
"Z. c #646B5C",
"A. c #6D7453",
"S. c #6B735C",
"D. c #6F7956",
"F. c #737A54",
"G. c #747C5D",
"H. c #797C51",
"J. c #485963",
"K. c #555D61",
"L. c #4E6D62",
"P. c #4A6261",
"I. c #566461",
"U. c #5C6463",
"Y. c #526D63",
"T. c #5D6A63",
"R. c #56656A",
"E. c #5D6569",
"W. c #5E6A69",
"Q. c #547164",
"!. c #5D7565",
"~. c #547469",
"^. c #5B766C",
"/. c #57796D",
"(. c #5C7D6E",
"). c #5D7967",
"_. c #5C7E71",
"`. c #626664",
"'. c #646B64",
"]. c #6A6E61",
"[. c #636D6A",
"{. c #696D69",
"}. c #61666A",
"|. c #657066",
" X c #6D7464",
".X c #66746E",
"XX c #6B736C",
"oX c #627B6C",
"OX c #797E64",
"+X c #757B69",
"@X c #676D74",
"#X c #6C7273",
"$X c #617E73",
"%X c #717573",
"&X c #72787A",
"*X c #78893C",
"=X c #7A8447",
"-X c #7B8255",
";X c #7B835B",
":X c #7B8758",
">X c #5D8073",
",X c #628275",
"<X c #64857A",
"1X c #68877B",
"2X c #748270",
"3X c #838B5C",
"4X c #868F54",
"5X c #8A9958",
"6X c #87914D",
"7X c #99A656",
"8X c #858A6A",
"9X c #858964",
"0X c #8C9365",
"qX c #979D65",
"wX c #949B74",
"eX c #9DA56A",
"rX c #9DA479",
"tX c #A0AC61",
"yX c #AEB274",
"uX c #737882",
"iX c #6D8F83",
"pX c #74958A",
"aX c #7F9E94",
"sX c #6E9085",
"dX c #828A85",
"fX c #81A397",
"gX c #B0B885",
"hX c #92B4A9",
"jX c #8EB0A4",
/* pixels */
"  ; 6XT @ o Y 3XV.. O 6XyXZ   q H.K q X m yX9X$   Y 7XT . < M.5XJ & m tXeX% @ 9.",
"g 5XY C > +.8XF.q q K 0X-X< < -.J J +.0 K b.A > L ;X=XM < ,.-XU j B Y qXm.* r.OX",
"7X5Xr.{.{.j.].Z.].].g.$.-.t.b n $.j.U.T.$.D v #.U.j.,.>.`.q.C.,.+XN.,.N.].S.9X0X",
"=Xf q.#Xq.j.`.%XXXg.3.K.K.i *.*.l..X6.3.p.k.s.^ u 1.U.U.E.4.K.0.`.C.j.8.%X9.v.- ",
"# > `.w.`.XXXX`.j.[.@XJ.7.6.f.p.oXoX!.k.2.| &.f.) ^ u ' 0.q.K.4.j.j.j.g.q.j.-.% ",
"o +.{.{.C.XXXXT.8.[.R. .J.J.Y.,XoXoX).).oX).k.| 2.<.<.) ^ @.3.I.U.j.>.z.`.9.;.A.",
"Z F.9.q.`.XXXXT.|.&.) s.s.Y.).,X!.).$X$XoX$XoXQ.Y.Y.s.s.} ` ) <.0.q.j.g.C.y.F.gX",
"4Xn.9.`.T.XX.Xk.%.p.k.| f.$XoX).).(.$X$X1X).).$X1X_.Q.Q.~.s.| ( @.1.j.C.g.,.A.M.",
"U j g.8.h.[.T.p.k.k.f.Y._.(.,X(.(.(._._.(.(._._._.$X$X$X_.^.L.f.&.&.%.T.j.l.g.0 ",
"+ *  Xj..Xh.&.i.d.f.Y.$X_._.(.(.(.(._._._._.>X>X_._.>X_._._._.(.x.2.( %.T.`.D , ",
"O r.:.T.I.<.| i.f.L.$X,X_._.>X>X_._._._._._.>X>X_._.>X_._._._._.Y.i.^ <.h.y.P M.",
"b.8X:.1.p <.k.f.L.$X,X_._._._.>X>X>X_._._._.>X_._._._.$X$X/.Q.d.s.z 4 <.h.H b.5X",
"8Xc.>.u p r c | d.a.d.~.<X<X<X<X/.>X,X_./._._._._._._._.$X~.2.2.y y e ) h.g.B.S ",
"d , >.p 6.` k r x a.~.L.a.~.sXfXjXsX/.>X<X_._._._._._._.~.i.X.r l z r ` h.j.$.> ",
"+ j Z.v ) } } ] k 2 k i.i.d.~./.aXfXsXiXpX>X/.>X_._._.~.2.| 5 r c c c %.h.j.H q ",
"< 8X Xp / 5.2.] | | ! l 5 x { X.O.~._.hXhX1X/.,X_._._.Y.X.2 5 ] x n z <.I.l.t.G.",
"H.wXg.^ ` 6.a.2.| | | { ! l r l ! ] O.~.sXaXaX$X^.^.s.{ r r l x _ ( Q 6.6.g.Z.G.",
"v.;.8./ ` 6.a.2.i.X.| | | { ( x x h x X.i.$X1X,X^.i.X.5 r l x ! _ ( Q 6.U.j.B.q ",
"0 q 0.' ` 6.a.2.2.i.i.X.i.X.X.| ] { l 1 k X.a.a.s.X.3 r l x ( _ } ( Q 6.T.l.N.: ",
"= $.`.E ` 6.a.2.2.i.i.i.a.a.i.i.! { { ! 5 l ( a.{ 5 r x x ! ( _ } ( ^ 6.h.'.y.B ",
"C ;X>.^ ` 5.i.i.a.a.a.a.a.a.a.a.a.X.{ ] ..! x 1 l y x Q _ _ _ _ ^ ^ ~ K.0.:.y. X",
"U n.>.^ ..2.| { a.a.a.a.a.a.a.a.a.a.a.X.X.{ { 1 y x Q ! _ _ _ _ ^ ~ ~ 6.h.=. XV.",
"G A 8.E ..2...] ..a.a.a.a.a.a.a.a.a.a.a.2.{ { 5 x Q ! ( _ _ _ _ ^ Q ^ 0.j.:.,.> ",
"& % 8.u ` 2.a.2.....a.a.a.a.a.a.a.a.a.a.a.X...r x ! ( ( { _ _ ( ^ ^ ^ 0.0.].;.* ",
"+ G z.v [ 2.P.a.} X.a.a.a.a.a.a.a.a.a.a.a.X.X.k l ! ! ( _ ( X.( _ ^ v 6.U.9.H v.",
"P rX=.[ } 2.s.a.{ X.a.a.a.a.2.X.X.X.X.X.X.....5 l Q ! ! ( x { ! _ ( v 6.4.q.G.rX",
"4X3X>.<.} 5.s.a.{ X.a.a.a.a.a.a.{ { { { X.{ { 5 k Q ! ! Q { 2.x ) / v 6.0.q.c.m.",
"U V j.` ..5.s.a.{ X.a.a.a.a.2.X.X.X.X.X.{ ] ] 1 k Q ! ! x L._.l ) ^ v 6.U.`.c.- ",
"= 0 [.` } 2.5.2.{ X.Y.L.L.a.X.{ a.a.a.a.a...] 1 l Q ! ! a._.| Q } v u 1.K.T.G - ",
", ,.j.<...5.P.5.2.! a./.pX,X..a.a.a.a.a.a.X.{ 2 l Q ! ! ! l Q _ t t / 0.0.q.L -X",
"T 3Xt.%.} 2.5.2.s.X.a.2.a.a.{ a.a.a.a.a.a.X...5 l ! ( ( l l ! z t / 1.U.K.8.c.3X",
"=Xn.;.%./ } <...5.2.a.2._ ..2.2.a.a.a.a.a.X...3 x ( _ _ } { l ( ` 6.I.[.U.8.B.V ",
"0 8 XXU.@.p E ' ` 5.a.2.5.5.o.X.O.O.i.a.s.<.^ e Q _ _ } ( r z ( R.R.U.U.j.Z.>.# ",
"s #.K.0.U.q.e.' ^ z ^ <.5.5.6.2.O.O.O.i.s.<.^ e ^ ( _ ) z z t h.W.E.E.T.'.Z.H D ",
"H  XU.E.8.`.@XR.I.) t t ) %.3.2.O.O.O.O.a.| x 9 v v ( ^ u u 6.I.[.[.`.[.%XZ.P *X",
"G.+Xq.K.`.U.}.[.[.T.1.v v b ) } X.X.X.X.a.| x 2 v ^ / u w 0.W.U.|.|.|.[.&XZ.-X6X",
"V.-.q.uX@X}.#XXX%X#X[.{.q.@.p v } } } } 5.o.~ 4 E W w i 4.E.#X&X[.|.[.[.dXXXS., ",
"q 8 j.0.&XXXS.;.Z.2XB.y.'.q.:.$.t v ) ` ^ o. .6 @.s a q.q.j.w.'.`.|.S.B.'.+Xt.o ",
"= S OXy.F ;.4X5XP B N =X2XF d M.9XK < 8 b ` ~ e 8 r.OXL A c.A.N.b +.u.D.Z.n C P ",
"A G.F.B : n.7X*X; f =X5XG o - eXqXM & S *.v 6 7 c.0Xm.; C :XwXj . :.9X;X: X I 5X"
};
