/* XPM */
static char *ae20174096f04abe99725637ab6db5d7[] = {
/* columns rows colors chars-per-pixel */
"40 40 238 2 ",
"   c #000400",
".  c #060D00",
"X  c #0B1500",
"o  c #131903",
"O  c #181C04",
"+  c #1B2404",
"@  c #1D250B",
"#  c #1E2414",
"$  c #2D3908",
"%  c #252B18",
"&  c #2C3217",
"*  c #333817",
"=  c #262107",
"-  c #2D3625",
";  c #3C3C2A",
":  c #323828",
">  c #232C20",
",  c #78301B",
"<  c #723628",
"1  c #38440C",
"2  c #3A4219",
"3  c #3C4727",
"4  c #3E4032",
"5  c #414705",
"6  c #455118",
"7  c #40471C",
"8  c #454B2C",
"9  c #4B5528",
"0  c #43493C",
"q  c #444A35",
"w  c #5C4836",
"e  c #4D593B",
"r  c #545C37",
"t  c #535D2F",
"y  c #774B34",
"u  c #67553D",
"i  c #735137",
"p  c #5A6529",
"a  c #5A643A",
"s  c #626A37",
"d  c #667436",
"f  c #6E6830",
"g  c #6F3B48",
"h  c #5A4A47",
"j  c #4C5748",
"k  c #535542",
"l  c #545D44",
"z  c #555B4C",
"x  c #5B5B4B",
"c  c #565649",
"v  c #4D5855",
"b  c #515656",
"n  c #555D55",
"m  c #5B5C55",
"M  c #555D5C",
"N  c #5A5C5B",
"B  c #595458",
"V  c #5E4554",
"C  c #6A4948",
"Z  c #754A4C",
"A  c #6C534D",
"S  c #6A5C4E",
"D  c #655949",
"F  c #765746",
"G  c #674D53",
"H  c #754A54",
"J  c #645454",
"K  c #6C5353",
"L  c #625956",
"P  c #63555B",
"I  c #615B5C",
"U  c #695659",
"Y  c #735857",
"T  c #52604C",
"R  c #5B634B",
"E  c #5C6847",
"W  c #4C645A",
"Q  c #4A6457",
"!  c #546154",
"~  c #5C6255",
"^  c #55615B",
"/  c #5B625B",
"(  c #5D695D",
")  c #5B6957",
"_  c #656947",
"`  c #687549",
"'  c #626554",
"]  c #646953",
"[  c #62645D",
"{  c #646A5D",
"}  c #6A6E5C",
"|  c #696756",
" . c #6C725E",
".. c #6A7253",
"X. c #757A58",
"o. c #756E4C",
"O. c #4F5C61",
"+. c #555D61",
"@. c #5B5D63",
"#. c #5A5968",
"$. c #645E66",
"%. c #695E6A",
"&. c #566061",
"*. c #5C6363",
"=. c #5A6569",
"-. c #5F6170",
";. c #626464",
":. c #646963",
">. c #6B6D63",
",. c #63656A",
"<. c #666B6B",
"1. c #6A6D6B",
"2. c #696063",
"3. c #6D7266",
"4. c #6D716B",
"5. c #60706F",
"6. c #767B67",
"7. c #6B6C75",
"8. c #696777",
"9. c #6E7275",
"0. c #737673",
"q. c #767979",
"w. c #736369",
"e. c #9D1D0C",
"r. c #991B14",
"t. c #832313",
"y. c #952815",
"u. c #942A25",
"i. c #893520",
"p. c #812B35",
"a. c #8B3A34",
"s. c #CF3A16",
"d. c #EC3E0F",
"f. c #C33E26",
"g. c #9B472B",
"h. c #84473B",
"j. c #89513C",
"k. c #964D35",
"l. c #A84627",
"z. c #BB5734",
"x. c #AC6638",
"c. c #BA6E30",
"v. c #A25926",
"b. c #DE4118",
"n. c #E95317",
"m. c #E04511",
"M. c #E96818",
"N. c #C44E22",
"B. c #DC5822",
"V. c #D8662A",
"C. c #D76E33",
"Z. c #E77D31",
"A. c #8D3A40",
"S. c #854544",
"D. c #875341",
"F. c #804A51",
"G. c #A25843",
"H. c #8A6C47",
"J. c #B66841",
"K. c #AF6B4B",
"L. c #C37248",
"P. c #77863A",
"I. c #7A844B",
"U. c #7A8559",
"Y. c #6E804A",
"T. c #7C8663",
"R. c #7E8574",
"E. c #DB8838",
"W. c #D59831",
"Q. c #E48827",
"!. c #F2932D",
"~. c #E8963A",
"^. c #F99134",
"/. c #FDA73B",
"(. c #E8AA39",
"). c #848A4C",
"_. c #858857",
"`. c #8A965B",
"'. c #949857",
"]. c #97934A",
"[. c #96A554",
"{. c #A0AB56",
"}. c #878B6A",
"|. c #8A9669",
" X c #919A6B",
".X c #969B77",
"XX c #AE8F68",
"oX c #9EAB69",
"OX c #9AA974",
"+X c #B7A262",
"@X c #A5B176",
"#X c #BD894F",
"$X c #D8974B",
"%X c #CC934A",
"&X c #DCBC57",
"*X c #CAA056",
"=X c #F8A946",
"-X c #F7B649",
";X c #E9B658",
":X c #F3BD52",
">X c #F9B858",
",X c #EDAF49",
"<X c #C6AE76",
"1X c #CDB16F",
"2X c #F4B964",
"3X c #EEC459",
"4X c #D7C36C",
"5X c #F2C563",
"6X c #FED76A",
"7X c #FCCF70",
"8X c #EEDB7F",
"9X c #FAD779",
"0X c #EDC860",
"qX c #FFE579",
"wX c #A3A891",
"eX c #CEB58E",
"rX c #D5C080",
"tX c #F6D98B",
"yX c #ECCF91",
"uX c #FDE78C",
"iX c #FFEC93",
"pX c #F5E696",
"aX c #FFF594",
"sX c #D4D7AB",
"dX c #F1DDB1",
"fX c #FDF5A2",
"gX c #FFF6AD",
"hX c #FFE9BC",
"jX c #FDF8B5",
"kX c #E9EDA9",
"lX c #DADCCA",
"zX c #FBFBC9",
"xX c #EEF5D5",
"cX c #FEFCDB",
"vX c #F8F9D5",
"bX c #EBF0CF",
"nX c #FBFAE7",
"mX c #FFFFF7",
/* pixels */
"X 1 P.d @ O s `.] . X I.oXa   & '.{.* . 5 [. X@   p {.P.X @ s `.x = 1 oX@X$ o e ",
"1 I.d t % 0 T.}.; - r .X` 2 : X.).f * * X.`.l # q X.P.6 : k X._ 0 0 _  XU.* 9 T.",
"[.`.R / >.n m ~ ~ ~ ' ' z ~ 3.>.S S w.w.z j <.<.1.' e l :.N { ~ <.1.{ z :.6.U.`.",
").9 [ 7./ N ;.q.4.[ N @.N ,.[ [ $.U V P +.=.=.@.@.<.n m *.n ;.;.,.;.@.N 7.m a 6 ",
"o % / n { 3.4.:.[ 1.7.8.#.#.;.:.$.B G J N M n m [ / N N m m N N N N / / #.#.~ # ",
"  0 [ m { 3.4.{ [ 1.7.-.#.#.;.:.N B L L [ m S | [ / N N N N N N N N / / #.,.~ ~ ",
"9 X.{ n :.4.4.:.m :.,.@.N N [ ;.^ ^ ^ m S u u S 2.#.N N @.#.#.@.@.N ^ ^ *.^ ..wX",
"I.` z N ;.4.4.{ n *.;.m m N [ [ ( ( ~ x i < < i 2.@.N N #.#.&.&.N N ^ ^ b ( ..U.",
"_ 3 z N ;.;.;.( ( ^ *.;.m I L J S w w F j., , h.L ^ n n M W W W ^ ^ ^ ^ n n R 3 ",
"+ & >.;.;.;.;./ ^ ^ ^ N N I L K F y < i.i.t.t.a.J n m m n Q Q W ^ n M M / n e * ",
"+ E m :.;.;.;.[ N m N N N N m A h.i.y.e.e.r.u.a.K m K K m ! ^ ^ n M +.+.&.~ E Y.",
"_ }.~ n *.*.[ / n n n n N m m A < u.y.y.y.u.A.F.J J H H L n N m n M #.#.&.~ E |.",
"|._ z b *.*./ ^ W W ^ ^ N P J Z p.a.D.F F A J P B h g H L m m m n n n n n ! ( j ",
"2 + ~ ;.@.@./ ^ W W ^ ^ N P J Z p.S.S z m m L L L h C H J m m m n n n n n ! j - ",
"X 3 3.*.@.@./ ^ ^ ^ ^ N N N B C < S.m v J Z h.y K G G Y I m n ! ! n M M M ~ e 3 ",
"2 }.~ 4.@.@.N ^ ^ n n N N N n C h.h.D h S.k.l.g.D.A K U I m T T ! n +.+.^ ( E U.",
"U.T.R :.@.@.^ n n n n ^ ^ M n S k.g.g.g.f.s.s.s.l.j.Y I m m T T n n M M b ^  .6.",
"E e ! ;.+.+.^ n N N ^ ^ ^ n n A G.z.z.N.b.d.d.m.N.k.Y N n n T T n n M M &./ >.0 ",
": : b v M M M n N N ^ ^ n N U Z G.L.C.N.B.n.n.n.V.x.Y N n n T T n M M +.*.*.{ - ",
"# j / N M M M N N m M ^ n I H Z D.K.J.l.V.V.M.M.C.J.Y b n n ! ! n M M +.M <.( j ",
"9 U.l / +.+.^ m m m M ^ *.I H H K C y g.c.Z.Q.M.Z.L.S b n M M n n M M +.M n ~ 6.",
"d ` l / +.+.^ ! m m M M j I Y K Y H.y #X%X>X!.Q.Q.x.w b n M M M M M M +.v b ( { ",
"e 3 ! / &.&.^ ^ N n M M ^ ^ n D x.$XE.E.W.6X/.Q.~.c.u N N +.+.+.M n M M *.^ ! : ",
"+ o ! n M &.&.^ M M M M M j l f $X^.^.!.(.qXqX:X~.$XH.D m m #.+.M n M M M n ~ % ",
"O r [ N N M #.#.+.M M M O.~ f *X,X=X/./.=X9XiXiX7X;X%X*XXXD $.+.M M M +.M / e a ",
"_ .Xc *.N N +.+.+.+.M M M k ].;X,X=X/./.-X5XfXuXaX9X-X2X+XD 2.@.N M M +.&.v ` OX",
"}.6.N N N ~ ^ ^ M +.M M O.k +X5X:X-X-X-X-X0XaX8X9X6X,X;X<Xu ' ^ N M M +.N n ` s ",
"_ ; N @.^ ~ ! ! M +.M M =.' 1X5X:X:X:X3X&XuX8X4X&X5X:X;XrXs l ~ ^ M M +.@.:.E $ ",
"= ; ;.<.^ ~ ! ! M +.M M O.x 1X7X3X6XqX8XuXfXpX1XtXuX;X9X+Xa l ! ^ M M +.&.n e $ ",
"* ' [ ;.N ~ ^ ^ M +.M M +.x 1X9X9XiXfXfXgXjXgXyXgXgX9XtX_.r l ! ^ M M +.+.n a Y.",
"o.}.[ N / / &.&.+.+.M M =.c 1XtXiXgXzXzXvXcXzXhXzXzXpXyX_ z Q =.^ M M @.+.N E U.",
"X...~ @./ &.&.&.+.M M M -.c <XtXpXjXzXxXvXvXvXcXcXcXhXeXD z ^ 5.+.+.@.+.@./ E 8 ",
"* % :.,.N M ^ ^ ^ ^ ( *.,.@.X.sXkXkXzXvXvXcXnXnXnXxXlXX.c n N *.;.;.,.,.;.~ ~ % ",
"& q N @./ ^ ^ ^ ( ( { ;.7.8.~ X.sXzXcXvXvXnXmXmXnXlX6.z m N ;.,.,.,.,.,.>.{ e 3 ",
"t X.[ ,.[ [ *.*.;.;.,.,.#.#.;.m  .wXsXxXnXnXbXlXwXq.[ ;.@.$.8.8.8.<.<.<.q.] p `.",
"..X.N ;.:.:.;.,.;.;.,.,.,.B @.m n ~ R } 0.0.>.' m [ :.@.$.8.8.8.7.1.>.3.q.} ` `.",
") 0 @.q.9.<.q.0.9.0.1.1.:.m m <.1.:.] | m n >.' } >.m :.;.b 9.7.,.1.>.} R.6.} : ",
"- : :.N <.<.3.~ 1.4. .R m m [ >.' ] _ R c m { ~ x R k ] [ m m @.<.;.' ] { 6.l @ ",
"> j T.E ; l `.OXk - r _.6.- % .. Xs 2 * _ 6.z & * U.U.9 8 ]  .' : 0 _ X.m : * d ",
"! R.` 3 : ..`.d 3 q I.`.8 % 8 .XI.5 $ r X._ 4 ; X._.s 7 8 X..Xq # c U.T.: o p [."
};
