/* XPM */
static char *a18404dfcf144722ae0b71e3326493d6[] = {
/* columns rows colors chars-per-pixel */
"40 40 246 2 ",
"   c #060800",
".  c #0C1400",
"X  c #151A06",
"o  c #110900",
"O  c #2A1B09",
"+  c #1D2507",
"@  c #1F2512",
"#  c #242A08",
"$  c #293409",
"%  c #252A16",
"&  c #2D321D",
"*  c #353C1A",
"=  c #323A0A",
"-  c #2D3423",
";  c #353729",
":  c #38352C",
">  c #6B1A17",
",  c #7E260F",
"<  c #6A1C24",
"1  c #513534",
"2  c #652628",
"3  c #75352A",
"4  c #7A3A37",
"5  c #673533",
"6  c #3A440D",
"7  c #3B4417",
"8  c #3A4325",
"9  c #3D4434",
"0  c #3F503A",
"q  c #454D0E",
"w  c #40452C",
"e  c #424A2B",
"r  c #464E24",
"t  c #4C562A",
"y  c #4E5624",
"u  c #42463A",
"i  c #444936",
"p  c #4D5938",
"a  c #555739",
"s  c #585433",
"d  c #684726",
"f  c #7B473A",
"g  c #6A573C",
"h  c #5C663B",
"j  c #586536",
"k  c #586328",
"l  c #666837",
"z  c #697439",
"x  c #726837",
"c  c #613541",
"v  c #4D3848",
"b  c #5A4846",
"n  c #4E5444",
"m  c #545B43",
"M  c #5C5D42",
"N  c #52554B",
"B  c #545A4D",
"V  c #5A5D4C",
"C  c #575346",
"Z  c #4D5D5C",
"A  c #4B5953",
"S  c #545753",
"D  c #545B55",
"F  c #5A5D55",
"G  c #555E5B",
"H  c #5A5D5C",
"J  c #585658",
"K  c #4F4D4B",
"L  c #6D484D",
"P  c #754A45",
"I  c #6D544A",
"U  c #675948",
"Y  c #755447",
"T  c #6B4A51",
"R  c #695652",
"E  c #635D53",
"W  c #6B5B54",
"Q  c #67585A",
"!  c #735A5A",
"~  c #775553",
"^  c #5D6445",
"/  c #5E634B",
"(  c #5B664F",
")  c #4D645B",
"_  c #4E6456",
"`  c #556255",
"'  c #5B6355",
"]  c #54615C",
"[  c #5C615C",
"{  c #5C6A5C",
"}  c #4E6045",
"|  c #636C4C",
" . c #636948",
".. c #697247",
"X. c #757A49",
"o. c #626553",
"O. c #646B54",
"+. c #62645D",
"@. c #6C625C",
"#. c #646A5B",
"$. c #696C5A",
"%. c #6C7459",
"&. c #757B57",
"*. c #75674E",
"=. c #555E62",
"-. c #5B5C62",
";. c #5A5C67",
":. c #4E5E60",
">. c #645B63",
",. c #5D6263",
"<. c #5D6A63",
"1. c #5C646A",
"2. c #556364",
"3. c #57636B",
"4. c #626663",
"5. c #656A64",
"6. c #6B6D64",
"7. c #63656A",
"8. c #66696B",
"9. c #6B6E6B",
"0. c #686461",
"q. c #6B7266",
"w. c #6C716A",
"e. c #737B64",
"r. c #717367",
"t. c #646A71",
"y. c #6B6C72",
"u. c #636671",
"i. c #6A7372",
"p. c #777977",
"a. c #726061",
"s. c #9E1B0A",
"d. c #B01B13",
"f. c #8C2809",
"g. c #862919",
"h. c #93281B",
"j. c #98331B",
"k. c #9D2006",
"l. c #A4220B",
"z. c #B23312",
"x. c #992924",
"c. c #953A29",
"v. c #8C392E",
"b. c #AA2220",
"n. c #C13D13",
"m. c #8F4016",
"M. c #96482C",
"N. c #8A453B",
"B. c #8F502F",
"V. c #B54826",
"C. c #A9582B",
"Z. c #B95637",
"A. c #B0512D",
"S. c #8C6F38",
"D. c #AB6132",
"F. c #B57032",
"G. c #B36516",
"H. c #D25217",
"J. c #EC5C1C",
"K. c #DB6018",
"L. c #F1721B",
"P. c #C25D29",
"I. c #E85C27",
"U. c #C87A36",
"Y. c #D36F2B",
"T. c #F66924",
"R. c #EB6E33",
"E. c #844846",
"W. c #935646",
"Q. c #827759",
"!. c #BA7750",
"~. c #77863B",
"^. c #798649",
"/. c #7A825C",
"(. c #788558",
"). c #7C8363",
"_. c #7A826B",
"`. c #7C8273",
"'. c #D98A31",
"]. c #E48229",
"[. c #E88A33",
"{. c #EA9D37",
"}. c #FE9E36",
"|. c #DDA63F",
" X c #878C57",
".X c #8A9656",
"XX c #979B52",
"oX c #848B4A",
"OX c #B88B44",
"+X c #A99050",
"@X c #96A456",
"#X c #828968",
"$X c #8A9477",
"%X c #90986F",
"&X c #A89C68",
"*X c #99A666",
"=X c #9AA47B",
"-X c #A8AC77",
";X c #ABAF5A",
":X c #C0954D",
">X c #EF954D",
",X c #D8A855",
"<X c #D9AD4D",
"1X c #E7A847",
"2X c #E8B859",
"3X c #E5A657",
"4X c #D2B278",
"5X c #EABA65",
"6X c #FCB569",
"7X c #F1BD71",
"8X c #CCC673",
"9X c #EAC167",
"0X c #F6CC6C",
"qX c #E6CA71",
"wX c #F7D078",
"eX c #9CA28B",
"rX c #A7AE91",
"tX c #AEB78E",
"yX c #929786",
"uX c #DAD18A",
"iX c #F9D986",
"pX c #EDD390",
"aX c #FEE78C",
"sX c #FFE69A",
"dX c #FFFA9F",
"fX c #D5DCAA",
"gX c #D1D9B9",
"hX c #FFDEA2",
"jX c #E0DAAA",
"kX c #DFE5A6",
"lX c #FCE9A7",
"zX c #FFF3A7",
"xX c #EEE9B7",
"cX c #FFEDB6",
"vX c #FFF1BD",
"bX c #FFF6B6",
"nX c #E2E5A7",
"mX c #DAE2CB",
"MX c #FCF8C8",
"NX c #FFF4D3",
"BX c #FFF4DD",
"VX c #FCFDD9",
"CX c #F0F2CE",
"ZX c #FCFFE2",
"AX c #FCF8EA",
"SX c #FDFAF6",
/* pixels */
". 6 ~.z @ X l #XO.. . ~.@Xk   % XX+X1   q ;X&XO   h *XoXo O *.&XM @ 7 *X-X$ . n ",
"q ^.z t % u ).#X9 & h *Xz 7 ; e. Xl & : X. Xs # i %.^.y ; C Q.*.u u  .%X(.7 p _.",
"@X.Xm F w.[ ' +.4.9.N B F F 8.8.' ' +.p.H B $.{ <.` } ' 5.H 6.#.5.8.4.S #.%./.%X",
"^.t 4.p.4.[ 4.p.y.-.-.-.H 7.7.8.[ ] ,.>.v >.<.A Z 5.` { <.G 5.,.4.,.-.=.i.' ^ r ",
"+ @ 4.H #.q.9.4.6.w.9.,.H H +.4.0.Q Q ! 2 5 +.) { B { { ` ` ` ` [ [ 2.-.,.,.[ % ",
". u +.+.#.q.6.+.5.9.5.H F H +.+.@.@.R P < 4 E ] +.C F [ ` ` ` ` [ [ [ [ ,.4.[ [ ",
"t &.#.H 4.6.6.4.4.8.4.D J H 4.4.+.@.P 3 > 4 V { @.b C o.H [ ` ` [ [ 2.[ +.' %.rX",
"(.&.V [ 5.9.6.4.,.4.,.S J H ,.4.[ @.P 2 > 4 C +.a.1 b E H [ ` ` [ H ,.[ D o.%./.",
"..8 N 4.7.8.5.4.4.,.<.<.[ D D ,.+.W L 5 < 4 W E ! b 1 E ` ` ` ` N F ,.8.[ B V w ",
"X & 6.[ 7.7.4.+.[ [ ] ] [ D S J S J Q L 5 P W U ! T b E ` ` ` ` S G ,.7.H +.m % ",
". ^ ' 4.,.,.[ H H G G G ] H T L J J H E U U  .g P ~ R F [ ] ` [ H -.,.,.[ ' ^ &.",
"%.#X+.[ -.-.H H H G G G G H L c Q Q U g d d d 5 3 f R [ H ] [ [ [ -.-.-.S V O.=X",
"#X/ F +.-.-.[ H H H G G { H L 2 L P 3 , f.f.f.g.g.4 ! S -.-.G ` ' ` [ H H F O.n ",
"* # F 4.,.,.[ [ H G ] ] ] H T c L f h.s.l.k.h.x.h.v.W G ;.;.H G ' ' [ H J [ N - ",
". w 6.F ,.,.[ [ H G ) ] [ H H J Q P x.d.d.h.4 E.x.g.I -.;.;.-.H [ [ 2.2.G ' p e ",
"7 $X#.9.,.,.[ [ H ] ] ` W W [ +.~ v.b.d.b.v.~ ~ c.g.P Q >.-.-.-.[ [ -.-.H [ / &.",
"/.#XF 4.,.-.-.H -.H H R f f Q ! c.l.d.z.c.N.! ! N.c.N.E.Q -.-.H H G =.=.G G $._.",
"| a ' 9.,.-.H H =.=.H I M.M.~ ~ V.z.H.z.j.v.P I N.N.E.E.Q -.-.H H G =.=.=.,.q.9 ",
"& & S [ -.H F ` G 2.H Y A.A.Y Y z.z.Y.>Xn.z.M.f g I I Q -.=.H F H G =.-.,.8.5.- ",
"# i [ H H H F ` ] 2.] I Z.V.B.B.A.P.G.wXH.H.V.M.f I R J =.=.F F H G =.-.,.,.` n ",
"t /.V [ -.;.-.-.=.] ) U C.P.D.M.A.Z.U.6XK.J.I.R.Z.W.~ J -.=.G G ` G =.-.=.G ' e.",
"....m [ -.;.;.-.=.] ] U D.Y.Y.C.m.D.6X6XH.K.J.T.I.Z.W.b -.=.] ` ` G =.-.Z D { O.",
"p e B H -.-.H ] ) ) H Y F.Y.].Y.M.!.hX7XY.L.T.T.T.Y.S.s H =.) _ ` G =.=.1.[ ` ; ",
"+ % F A H H F ` ) ) H Y U.[.[.'.!.4XlXiX3X>XR.L.L.].F.l F =.) ` ] G =.=.=.G ' % ",
"+ m ] Z G G G G ) Z G U OX{.'.1X1X,XiXdXzXsX6X[.}.{.<XS.F 2.` ` G G G G J [ m ^ ",
"h $XK =.G G G G =.Z Z M :X1X|.1XwX<X2XaXbXcXiX3X1X1X|.OXU G ` ` G G G G -.N | =X",
"/.e.[ G G G G G =.:.Z M +X2X0X9XaXqX2X5XlXcXcXpX7X5X1X,Xg F ] ] =.G G G J F O. .",
"j 8 ,.2.G G G G :.:.G M +X9XaXwXzXuX,X5XhXvXMXMXcXsX2X5Xg F Z :.=.G G H -.5.| = ",
"$ 9 ,.,.G G G G =.=.G M S.4XsXzXlXlXsXlXvXNXNXNXVXvX0XqXX.' Z 3.=.H H H -.F a = ",
"$ ( ,.1.G G G G =.=.G M x uXpXzXvXvXcXvXNXBXBXBXVXvXqX8Xl ` G ;.-.H H H H F M &.",
" .$X,.G G G G =.2.=.F M s 4XpXzXMXMXMXNXAXAXAXBXVXxXuX8Xp ) ,.-.-.H H H H F ^ /.",
"/.O.D G G G G G =.=.F V a -XnXlXMXMXNXBXSXSXAXVXNXjXuXtX0 G 7.Q -.-.-.H H [ | e ",
"8 - w.,.H H F H -.-.F F D $.fXkXMXCXMXZXSXSXSXAXxXnXfXO.S -.-.>.7.7.u.7.4.[ o.& ",
"% i ` G ,.,.[ [ ,.,.[ [ t.8.).fXCXVXVXZXAXSXSXSXCXfX&.K J ;.;.7.8.8.u.u.9.6.a e ",
"t %.' +.4.7.4.4.4.4.4.7.y.,.#.%.rXgXVXZXSXAXCXmXrX`.5.,.=.1.u.t.t.9.9.9.p.#.j .X",
"&.).V [ 8.8.8.5.5.5.4.7.4.F [ +.V $._.eXyX$X_.q.D G 2.1.1.1.t.t.i.w.w.w.p.$....X",
"o.u F y.y.7.y.4.9.p.6.6.#.F F 9.r.6.+.N N N 5.[ 1.i.2.] <.D 8.i.,.w.q.5.p.p.O.* ",
"% - 8.-.y.9.r.V 6.w.o./ o.o.o.O.$.$.+.+.N D ,.[ ` B { D { B ' ` 5.{ ' #.5.6./ + ",
"% m `./ * t  X%XN u  . X&.$ # X.%Xh 8 w  .e.J - 7 X.).i ; / /.| - u | %.J : = z ",
"a #X%.i * X.XXl : K X.^.r # 6 *X.X6 # a &.| : - z oXh w a #X X7 X N &.).: X k XX"
};
