/* XPM */
static char *_086a664d9f5456bb08357cf5779e4cd[] = {
/* columns rows colors chars-per-pixel */
"40 40 241 2 ",
"   c #050600",
".  c #0D1300",
"X  c #0F1900",
"o  c #151C02",
"O  c #171A0B",
"+  c #1B1D11",
"@  c #221E02",
"#  c #1C2406",
"$  c #1D2315",
"%  c #252A08",
"&  c #2B3606",
"*  c #242A18",
"=  c #2B3319",
"-  c #26301F",
";  c #333A19",
":  c #2D3425",
">  c #343B2A",
",  c #383825",
"<  c #2F342F",
"1  c #7E271C",
"2  c #5F3928",
"3  c #743A37",
"4  c #6A3835",
"5  c #3B4716",
"6  c #38400E",
"7  c #3B4428",
"8  c #3F4732",
"9  c #43481A",
"0  c #494500",
"q  c #444929",
"w  c #4B5728",
"e  c #53572C",
"r  c #424B32",
"t  c #454A39",
"y  c #495338",
"u  c #555B38",
"i  c #6F4B3D",
"p  c #76473A",
"a  c #734C2F",
"s  c #5A633B",
"d  c #5F6733",
"f  c #5A6423",
"g  c #646B3B",
"h  c #68753A",
"j  c #647129",
"k  c #693D46",
"l  c #4C5647",
"z  c #535B44",
"x  c #555A4D",
"c  c #595C4D",
"v  c #565648",
"b  c #4C5A59",
"n  c #535554",
"m  c #545B55",
"M  c #5A5D55",
"N  c #53565B",
"B  c #555E5B",
"V  c #5A5D5B",
"C  c #5B5659",
"Z  c #554C4C",
"A  c #764A4A",
"S  c #66584B",
"D  c #775749",
"F  c #6A5652",
"G  c #635C54",
"H  c #695B55",
"J  c #625C5C",
"K  c #675659",
"L  c #735654",
"P  c #714C48",
"I  c #5C6545",
"U  c #5C634C",
"Y  c #596645",
"T  c #4C645A",
"R  c #4D6757",
"E  c #566255",
"W  c #5C6254",
"Q  c #55615B",
"!  c #5B615B",
"~  c #5F6959",
"^  c #636C4D",
"/  c #65684A",
"(  c #697448",
")  c #62645C",
"_  c #63695C",
"`  c #666957",
"'  c #6B7354",
"]  c #6D735C",
"[  c #687552",
"{  c #737B5B",
"}  c #717F51",
"|  c #727C4A",
" . c #4C5E63",
".. c #465E63",
"X. c #565E63",
"o. c #5A5D62",
"O. c #5A5B68",
"+. c #645A66",
"@. c #755A61",
"#. c #4F6162",
"$. c #4C626C",
"%. c #526162",
"&. c #5D6263",
"*. c #5D636B",
"=. c #516372",
"-. c #626564",
";. c #656A64",
":. c #6A6D63",
">. c #63656B",
",. c #666B6B",
"<. c #6B6D6B",
"1. c #686463",
"2. c #6D7363",
"3. c #6C7368",
"4. c #767B66",
"5. c #676B72",
"6. c #676A72",
"7. c #6B7373",
"8. c #757779",
"9. c #726D71",
"0. c #AA1D07",
"q. c #B81900",
"w. c #B31614",
"e. c #9B220B",
"r. c #9A2A1C",
"t. c #962A18",
"y. c #8A2610",
"u. c #A5270B",
"i. c #A12917",
"p. c #972A28",
"a. c #873D2D",
"s. c #863E37",
"d. c #902D2C",
"f. c #CA2700",
"g. c #CF3612",
"h. c #AD4E0D",
"j. c #BC6709",
"k. c #834131",
"l. c #8C5339",
"z. c #98502E",
"x. c #B15C28",
"c. c #B34A2D",
"v. c #AE632F",
"b. c #946B29",
"n. c #D34506",
"m. c #CA5012",
"M. c #C76219",
"N. c #D56C19",
"B. c #D0650C",
"V. c #CE7038",
"C. c #F27B2C",
"Z. c #D85A2C",
"A. c #993D44",
"S. c #8B3944",
"D. c #835847",
"F. c #93534A",
"G. c #91764D",
"H. c #876653",
"J. c #8F7055",
"K. c #B27C54",
"L. c #CE7049",
"P. c #E07F40",
"I. c #75833C",
"U. c #7B8245",
"Y. c #7B8458",
"T. c #7B8663",
"R. c #7D817B",
"E. c #DC9732",
"W. c #E88939",
"Q. c #FE8C38",
"!. c #EB942E",
"~. c #DDA739",
"^. c #F8A632",
"/. c #858B58",
"(. c #8A945A",
"). c #899450",
"_. c #94A355",
"`. c #A7AD5C",
"'. c #858769",
"]. c #899366",
"[. c #979B6A",
"{. c #858972",
"}. c #979874",
"|. c #879170",
" X c #A89768",
".X c #99A772",
"XX c #B9A775",
"oX c #A7B371",
"OX c #DB874B",
"+X c #EC9446",
"@X c #DBA449",
"#X c #DBAE53",
"$X c #E3A846",
"%X c #F8BC46",
"&X c #E4B75A",
"*X c #E7B449",
"=X c #DEB769",
"-X c #EAB461",
";X c #F8BC69",
":X c #F8C459",
">X c #FBC867",
",X c #E9C87A",
"<X c #F7CB77",
"1X c #FCD879",
"2X c #E5D57E",
"3X c #FEE07F",
"4X c #7A8085",
"5X c #9EA384",
"6X c #AFB793",
"7X c #ABACA5",
"8X c #C4B380",
"9X c #BEC1B1",
"0X c #FCD988",
"qX c #EBD38D",
"wX c #FFEA87",
"eX c #FFE39C",
"rX c #FFF396",
"tX c #F5ED93",
"yX c #D8DFA7",
"uX c #C8CCB5",
"iX c #EDD2AA",
"pX c #DCE4BD",
"aX c #FBE4AC",
"sX c #FFF8A9",
"dX c #E9EDB7",
"fX c #FFE7B1",
"gX c #FFFDBE",
"hX c #FEF6B7",
"jX c #D1D18F",
"kX c #FEFACC",
"lX c #FCF8C6",
"zX c #FCFBD2",
"xX c #FBFDDB",
"cX c #F4F8D9",
"vX c #EEFCCF",
"bX c #EEF8E5",
"nX c #F4FBE3",
"mX c #FBFFE3",
"MX c #FFFFEC",
"NX c #F3F5E1",
"BX c ivory",
/* pixels */
"  ; ).h o o g (.U . X U.oXe   * (.[.,   0 `. X@   s `.h . * h .Xv $ 6 .XoX& . l ",
"9 Y.| s - t T.|.> * s ].| ; - 2.Y.g , , U.).u = y { U.5 > x { / r r I ].Y.; u '.",
"_.(.I _ ;.V M -.>.<.M c c ) 7.9.v / -.3.z z :.m ;.! z c -.N ) W -.,.-.n _ ] Y.[.",
"I.w x 8.;.-.>.8.7.,.;.N &.-.o.-.-.M V ! l M M J n >.V &.V n &.V -.&.O.N 8.) / q ",
"o # _ ! -.<.6.>.<.3.<.-.V V ) ) W W E W c S 4 L H ! ! V M M M M ! ! &.o.o.V M $ ",
"  r :.) _ <.<.-.;.<.;.! V M ) ) W W E E ) F 3 3 H ! ! M M M M M ! ! ! ! V -.M M ",
"w 4.:.! _ :.:._ -.,.-.M M V &.) W E R R E c P 4 K ! W M M V M M ! ! &.! ) W ' 6X",
"Y.{ m ;.-.:.:._ &.>.-.m M V &.) H G Q R l z @.Z K G W M V o.! W V ! &.&.m ) ' Y.",
"^ 7 x -.;.;.-.) -.&.! &.B B B G 2 i J Q R m +.+.F S M Q o.V B E ! ! &.&.&.V U 7 ",
"o = ) V -.-.-.! ! ! ! ! B B B G 4 p H M S F K L i i c Q X.B T T Q B X.o.V ! l * ",
"# U ) ;.&.&.! ! ! B B Q B B B M Z F F P k.a.a.k.3 p v B X.#.T T %.X.O.X.&.E Y [ ",
"^ T.W V o.o.V V B B B B B B B V n F P a.y.e.y.y.1 3 S ! %.#.T T %.X.O.X.&.x U }.",
"|.' W ! o.o.! ! B B B B B B Q Q B F a.t.e.u.u.r.d.3 S Q X.X.V M E Q X.X.N B _ l ",
"7 * W ! &.&.! ! ! B Q Q Q Q Q M F p t.0.i.i.p.p.d.s.F B X.X.M M E E B X.N B l : ",
". r 2.V o.o.! ! ! B Q Q Q Q Q F S.p.0.0.r.s.A A d.A.L V %.#.Q E Q X.X.X.N ! y 8 ",
"; |.:.<.o.o.! ! W V Q Q Q Q B L p.w.q.q.r.s.K K S.A.L V #.#.Q E B X.X.X.X.! U { ",
"T.|.W &.o.o.! M M W ! B ! n m D r.g.f.g.u.z.L J A A C X.$.%.Q W Q Q X.X.N ! ] 4.",
"^ z ! -.o.o.&.! M W Q V J H G D.c.g.f.n.h.x.a D D D K o.%.%.Q ! Q Q X.X.&.! :.r ",
"< < n B o.o.o.Q Q Q B J D H.L F.c.m.n.C.Q.h.x.z.z.l.D H o.%.Q Q Q Q X.X.*.&._ : ",
"$ l -.>.o.o.o.B Q Q %.J D J.D F.L.Z.m.C.>XN.m.h.x.z.D.L M B Q Q Q Q X.X.o.,.~ y ",
"w Y.U ! o.o.V B Q #.%.V S J.G.a v.V.M.B.!.>XB.M.V.z.D.L C B B B Q B X.X.*.B E ] ",
"h ( z ! o.o.V B %.#.%.B v J.K.v.h.h.+XW.j.>X;XN.L.l.D H B B B E m B X.X.N m ~ ~ ",
"y 8 m &.o.o.V B #.#.B V C H.OXW.M.h.-X1X#X1X+XP.K.L J o.X. .E E Q B X.X.&.B E > ",
"o $ ! V o.o.o.X.X.X.B B C D OXQ.W.E.&X1XrX>XW.OXK.D J *. . .Q Q Q B X.X.N m W = ",
"# u W ! V o.O.O.O.O. .T V D +X!.^.E.~.*XwX1X@X$X@Xb.S &.b ..$.$.%.B B B B ! z Y ",
"d .Xz V V V o.O.O.o. .b x G.$X^.%XE.%X$X:XwXwX>X*X@XG.{.b ..$.=.X.X.Q B &.m [ .X",
"].[ x &.! ! V o.o.o. .B v  X-X>X:X~.>X>X&XrXsXsX0X-X=XXX/ N X.*.X.B Q B B ! [ ( ",
"u ; ! V ! W ! B X.X.X.B u XX,X3X&X&X<XrX0XsXhXgXeX;X#X,XJ.C +.-.o.B Q B &.;.^ & ",
"# 7 ! -.! W ! B B B X.m S 8X,XrX0X,XqXlXhXgXlXlXaXeX<X=X}.n J J o.X.B B &.B u & ",
"% I ) ,.! ! V B B B B B c XX2XwXhXfXaXlXkXkXzXzXkXhX0X,X'.n J J o.X.B B X.m Y Y.",
"h ].` ! V V o.X.m m T T m }.qX1XgXzXzXkXcXcXcXcXxXkXaXiX] B m V o.X.Q Q V ! I Y.",
"Y.| W V V o.X.X.V M E B n {.qX2XhXlXxXxXcXnXbXbXvXlXaXiXc B m V o.X.B B o.! ^ q ",
"; = ;.&.B Q Q V o.+.) ) C ` jXtXdXzXcXcXMXNXbXmXzXyXdX}.z m V &.&.*.*.*.-.! W * ",
"% r Q ! ! ! W ! +.>.1.1.9.) /.yXxXxXMXcXnXNXnXmXvXdX6Xs z M &.>.>.>.>.>.,.x z y ",
"w [ _ <.~ ~ ! &.>.>.>.>.>.o._ 2.9XNXMXBXmXmXmXcXpX6X[ z W &.>.6.,.,.<.<.8._ g ).",
"Y.T.~ <._ _ -.>.*.*.>.>.*.X.o.N n 8.7X9XuXuX6X5X' I U c ! -.,.5.6.<.:.:.8.:.( _.",
"U 8 ! 4X7.<.8.7.5.7.,.,.,.N N 6.>.O.C C M v ` z ` ] M M _ V <.8.,.;.:.2.R.4.` , ",
"$ - E n ;.;.2.U 3.3.2.W ) M M <.o.-.;.1.M M M c U v y ` _ x ) M ,.) / _ :.3.v # ",
"- z T.Y > u (..Xv , d /.'.; % ' }./ q q / 4.U = = 4.{ y r U 4.U : t / ] ) > 6 j ",
"x {.( 5 ; ( ).j ; 2 U.).e % 9 [.(.9 & e { ^ , , ' |.I ; q '.}.r + c '.4.< O f _."
};
