/* XPM */
static char *e3a016b490904f38b9e9109a853433b4jES1He07fp1n9dzH[] = {
/* columns rows colors chars-per-pixel */
"40 40 226 2 ",
"   c #010304",
".  c #0D0E00",
"X  c #00030C",
"o  c #070C00",
"O  c #171A03",
"+  c #000510",
"@  c #020913",
"#  c #0A0B14",
"$  c #0F1307",
"%  c #1C2307",
"&  c #1E2215",
"*  c #24290C",
"=  c #272404",
"-  c #2C3506",
";  c #363704",
":  c #252B17",
">  c #2B3215",
",  c #2C341B",
"<  c #363F1D",
"1  c #3A341D",
"2  c #332B17",
"3  c #191C22",
"4  c #262A28",
"5  c #2E332A",
"6  c #2D3225",
"7  c #363B29",
"8  c #3A3D2B",
"9  c #333726",
"0  c #2A2D32",
"q  c #2E3132",
"w  c #353A34",
"e  c #32353B",
"r  c #353A3C",
"t  c #3A3C39",
"y  c #40371A",
"u  c #433F2B",
"i  c #3D4816",
"p  c #3B4326",
"a  c #3C443A",
"s  c #3D4538",
"d  c #484A11",
"f  c #414924",
"g  c #42462D",
"h  c #434829",
"j  c #525928",
"k  c #43463D",
"l  c #444A3C",
"z  c #454833",
"x  c #4C5437",
"c  c #545737",
"v  c #4B542B",
"b  c #5C642A",
"n  c #5A623B",
"m  c #5C6637",
"M  c #64642F",
"N  c #656B3C",
"B  c #69743B",
"V  c #6E7733",
"C  c #333941",
"Z  c #383B42",
"A  c #3D4344",
"S  c #3D434B",
"D  c #3B4745",
"F  c #3F4951",
"G  c #444546",
"H  c #434B45",
"J  c #43464B",
"K  c #4B4D4C",
"L  c #464C48",
"P  c #4D514E",
"I  c #4B5246",
"U  c #545A44",
"Y  c #555A4C",
"T  c #595E4C",
"R  c #545548",
"E  c #464B52",
"W  c #494C54",
"Q  c #4A4D5B",
"!  c #44485C",
"~  c #4C5455",
"^  c #4D545B",
"/  c #4C5A59",
"(  c #4D5C55",
")  c #535553",
"_  c #565A53",
"`  c #595D54",
"'  c #53555C",
"]  c #565C5A",
"[  c #5A5D5C",
"{  c #5C6346",
"}  c #5C634B",
"|  c #57624C",
" . c #5C6254",
".. c #5D625D",
"X. c #59635A",
"o. c #636B4C",
"O. c #60674C",
"+. c #6B7343",
"@. c #67724B",
"#. c #757C49",
"$. c #61655C",
"%. c #656A5C",
"&. c #676B56",
"*. c #6D7655",
"=. c #737A57",
"-. c #4E5265",
";. c #5B5E64",
":. c #575D65",
">. c #5D6263",
",. c #596366",
"<. c #616564",
"1. c #656A64",
"2. c #6A6C65",
"3. c #62656A",
"4. c #656A6A",
"5. c #696D6C",
"6. c #68676A",
"7. c #6B716B",
"8. c #757A66",
"9. c #6D6E75",
"0. c #686C77",
"q. c #6D7374",
"w. c #6D737B",
"e. c #717473",
"r. c #757B7C",
"t. c #777A7A",
"y. c #847F71",
"u. c #7F8739",
"i. c #7A8546",
"p. c #798255",
"a. c #778058",
"s. c #7D8567",
"d. c #7D857E",
"f. c #848B4A",
"g. c #858A5A",
"h. c #8A955B",
"j. c #979857",
"k. c #99A353",
"l. c #A4A454",
"z. c #858C66",
"x. c #8A9369",
"c. c #989B61",
"v. c #898F75",
"b. c #919572",
"n. c #9AA56F",
"m. c #9CA177",
"M. c #B7B87B",
"N. c #797D84",
"B. c #7A7E8A",
"V. c #727882",
"C. c #7C848C",
"Z. c #7A8085",
"A. c #7E8890",
"S. c #848C8E",
"D. c #888A8E",
"F. c #828786",
"G. c #818692",
"H. c #858B93",
"J. c #878B97",
"K. c #8C939A",
"L. c #90979C",
"P. c #9CA783",
"I. c #979BA5",
"U. c #8F93A4",
"Y. c #9BA4AD",
"T. c #9EA9AF",
"R. c #9DA6B4",
"E. c #9EAAB3",
"W. c #9FADB9",
"Q. c #A2A8AA",
"!. c #A1A6B3",
"~. c #A3ACB6",
"^. c #A5ADB9",
"/. c #AAAEBB",
"(. c #A6B1B6",
"). c #A9B2B6",
"_. c #A6B0BA",
"`. c #A9B2BA",
"'. c #ADB8BD",
"]. c #B1B4BB",
"[. c #B1B9BE",
"{. c #B0BF8C",
"}. c #A8AEC0",
"|. c #A7B6C3",
" X c #ABB5C3",
".X c #ACB9C3",
"XX c #ADB8C9",
"oX c #B2B5C1",
"OX c #B2BAC3",
"+X c #B4BDC9",
"@X c #B5C3CC",
"#X c #B8C3CE",
"$X c #BCC6C8",
"%X c #B7C4D2",
"&X c #BBC6D2",
"*X c #BDC9D4",
"=X c #BFCADA",
"-X c #C2CCD7",
";X c #C4CDD9",
":X c #CAD4DE",
">X c #C7D1DD",
",X c #C1C2CB",
"<X c #CCD6E6",
"1X c #CFDBE5",
"2X c #CED9EA",
"3X c #C6D3E3",
"4X c #D1DCE6",
"5X c #D3DDEB",
"6X c #D7DBE8",
"7X c #D3DEF3",
"8X c #D8DEF1",
"9X c #C5CFE2",
"0X c #D4E1EC",
"qX c #DBE4EE",
"wX c #D8E7EC",
"eX c #D5E2F3",
"rX c #DBE4F3",
"tX c #DDEAF5",
"yX c #DBE4FB",
"uX c #DEEAF9",
"iX c #E2EBF5",
"pX c #E4EBFB",
"aX c #E5EAF8",
"sX c #E5F1FD",
"dX c #E9F4F9",
"fX c #EBF2EF",
/* pixels */
"o < f.B & O N g.=.. O f.l.M   2 j.j.y   d l.c.=   M k.u.. O V c.c = ; l.M.; . c ",
"f z.+.v 6 z z.m.g 7 c c.#.d u y.x.N 1 u f.c.N * x p.i.j f U g.#.c g +.c.g.; v z.",
"h.x.T 5.2.` R l G R I g z z R _ k k G _ s 5 k k s 7 9 7 8 9 8 8 K k R T %.8.g.c.",
"i.f [ w.6.K t G G K K P ) K A ~ W W ~ W F S C A D L E J A A A J G e q [ e.` n d ",
"O O ..[ e.t P fX6XqXpXpXiXiXtXqXrXrXuXtXwXwXtXtXuXrXtXaXpXrXrXpX5XqX,.~ ;._ } * ",
"o I 2.<.7.t W dX5X8X8X5X8X0X0X0X5X5XeX5X5X0XeX0X7X7XeXeX7XyXeX<X8XrX,.^ >...| O.",
"j p. ._ 5.r W aXeX4X;X@X.X'.|.|.|. XXX X|.|.XX|.|.|.|.XX|.;X5XrX7XyX:.^ 5. .@.{.",
"i.+. .6.5.r Q pX5X>XOXE.(.~.(.W.^.W.}.^.W.^._.W.W.W.W._.W.^.@X<X7XyX,./ >.X.@.p.",
"m p  .] 6.e Q pX5X*X@X#X&X&X&X%X&X#X*X&X#X&X*X#X%X@X%X%X=X%X%X9XeXuX,.( 4.X.| p ",
"% > 2.[ ..0 ! yXrX0X0X0XtXtXtXtXtXtXiXtXtXiXpXtXrXrXrXuX2XeXeX2XeXtX,.( [ ..U * ",
"O { R <.<.e Q pXeX0X1X=X=X*X*X*X*X&X-X*X&X&X;X&X&X&X&X*X=X2XeXeXeX0X/ D .. .n +.",
"o.s.Y ) ..0 ! pX5X5X&XY.~.E.E.E.E.E.^.E.~.~.^.~.R.R.R.^.^.XX3XuXuXtX/ D .. .n x.",
"x.{ ..K <.0 Q pX4X#X.X+X.X.X.X.X|.|.XX.X X.X+X X|. X|.XX X}.+X9X2XtX/ a ..[ $.I ",
"< * _ <.1.0 -.pX5X4X4X4X4X1X4X4X4X4X0X0X5X5XeX5X5X4X5X5X5X<X<X<X7XuX] a [ ..P 4 ",
". z 1.[ 1.0 -.pX5XqXqX0X4X4X1X1X1X1X5X4X4X4X0X4X<X<X2X4X4X5XeX5XeXpXX.H X...x < ",
"p v.$.5...4 Q rX1X5X:X+X.X.X.X.XE.E._.~.^.^.`.^.~.^.^.^.^.&X5XeXeXiX,.H ..%.{ =.",
"g.x.` 6.[ & ' iX4X&X'._.~.~.~.~.~.~.~.~.^.^.^.^.~.^.^.^./.!. X>X>XqX,.~ _ _ &.s.",
"@.c _ >.7.& L iX:X;X-X;X-X-X-X-X-X-X;X;X;X;X;X;X;X;X;X;X;X-X;X:XqXqX:.~ .._ %.l ",
"h 8 [ ;.5.9 R fXiXrXiXsXsXpXsXsXsXsXsXsXsXsXsXsXsXsXsXsXpXpXaXrXsXdX,.P 1. . .6 ",
"% l <.;.1.t 5 Q.).~.R.E.R.R.R.E.E.T.E.E.E.E.E.E.E.E.E.!.~.Y.Y.Y.`.I.4 ] X... .I ",
"j x...>.] ..r   + @ + X X X X X                                 X X E >.] X. .7.",
"B @.Y <.] K 3 + @ @ @ X X + + X                               X   # 4 ] <.`  . .",
"c h _ >.] w w r.H.H.A.C.C.C.C.C.S.S.S.S.S.S.S.S.D.D.D.D.D.D.D.H.G.>.e Z 1.`  .a ",
"* % [ ' <.4 K K.OX+XOX.X'.'.'.'.'.'.'.`.'.'.'.'.'.].].].].].].].Q.w.w.0 [ Y T , ",
"% O.[ ' G r C.C.`.~.T.(.`.`._._._._._._._._._._.^.^.^.^.`.^.^.^.H.w.C.e ~ %.U O.",
"m m._ 3.r 6.I.0.!.^.^.`.`.`._._._._._._._._._._.^.^.^.^.`.`.`.`.J.r.oXE A  .*.P.",
"p.s._ >.4 J.oXV.I.).'.`.).).(.(._._._._._._._._.^.^.^.^.`.`.`.`.V.J.+Xw.5 ` O.*.",
"m > ..Q e I.oXB.K.).'.`.).).(.(._._._._._._._._.^.^.^.^.`.^.`.`.0.K.+XS.4 %.{ , ",
"- < <.E J oX/.J.w.Q.).'.`.`.).).`.`.`.`.`.`.`.`.`.`.`.`.`.^.^.!.w.L.~.^.q l { > ",
"- { 5.Z 0.oX}.U.w.Y.).).`.(.).^.^.^.^.^.^.^.^.^.^.^.^.^.`.^.`.I.V.!.R.`.~ s { s.",
"+.b._ 0 I.].}.R.V.I.[.).`.`.).).`.`.`.`.`.`.`.`.`.`.`.`.`.`.oXG.G.`.^.oXF.9 { x.",
"*.&.w e ,X].`.`.r.L.+X^.).).).).OXOXOXOX[.[.[.].oXOXOXOX`.`.oXV.L.^.+X`.$X4 x x ",
", 8 I 4 N.N.r.t.] [ C.C.t.t.N.N.B.B.B.Z.d.d.F.S.J.H.G.C.C.J.V.^ w.H.G.J.N.5 k : ",
"* l ` w e r w w w r S S a k G J C C C r a a H L E E J S S E W ^ S ^ ^ ' G Y T z ",
"j =.7.[ 5.5.5.5.1.5.>.3.1.1.4.4.4.4.4.4.;...>.1.t.q.q.5.>.q.e.4.>.q.5.5.e.%.m h.",
"a.8.] >.1.1.3.3.] 6.[ 6.<.<.<.<.>.>.<.>.>.>.<.6.6.<.>.[ [ [ <.e.9.r.7.7.t.%.=.h.",
"O.I :.B.w.>.9.9.9.w.3.N.w.:.E <.1.$.....` _ 5.>.6.t.>.' 3.' q.9.3.3.5.e.F.t.%.7 ",
"& 5 3.;.5.%.8.1.q.t.1.` >.3.[ 1.&.&.%.$.U T $.[ ....) ..1.[ ) ) 3.>.$.2.2.7.O.* ",
", Y 8.} p v g.n.n g n s.8.4 * a.c.N g 8 N #.R 6 9 8.=.x p { *.&.5 I &.8.` 7 - B ",
"Y v.o.c < #.k.V i f #.g.x > f n.f.i > c #.B p 8 @.z.N i v =.x.f & Y z.s.4 O b j."
};
