/* XPM */
static char *d5d0f69beb904ae8813841412e0aebf2RepA1Ao8IznLrNjN[] = {
/* columns rows colors chars-per-pixel */
"40 40 206 2 ",
"   c #030101",
".  c #0B0103",
"X  c #0B0C0C",
"o  c #0B0A07",
"O  c #120205",
"+  c #16020A",
"@  c #1A020C",
"#  c #1C0100",
"$  c #14120C",
"%  c #090E10",
"&  c #0C1315",
"*  c #131313",
"=  c #1C1C1B",
"-  c #181A18",
";  c #260402",
":  c #20030F",
">  c #2A040B",
",  c #340602",
"<  c #3C0701",
"1  c #2B0414",
"2  c #250312",
"3  c #350519",
"4  c #3A051B",
"5  c #350515",
"6  c #22210E",
"7  c #232214",
"8  c #22211F",
"9  c #2F2E10",
"0  c #393818",
"q  c #171D21",
"w  c #1E2527",
"e  c #242524",
"r  c #2B2A25",
"t  c #262828",
"y  c #2A2D2C",
"u  c #282624",
"i  c #3D3D24",
"p  c #33332B",
"a  c #383727",
"s  c #2E3131",
"d  c #2A393F",
"f  c #333534",
"g  c #3C3C35",
"h  c #373A39",
"j  c #3B3D3C",
"k  c #373837",
"l  c #232C31",
"z  c #440903",
"x  c #4A0902",
"c  c #500902",
"v  c #550A0F",
"b  c #42061F",
"n  c #6C0E03",
"m  c #640D03",
"M  c #720E04",
"N  c #790F04",
"B  c #610A1A",
"V  c #450621",
"C  c #490622",
"Z  c #55072A",
"A  c #5C072D",
"S  c #570829",
"D  c #5F0731",
"F  c #61082E",
"G  c #770C20",
"H  c #610730",
"J  c #630830",
"K  c #6B0933",
"L  c #720936",
"P  c #77093B",
"I  c #790A3A",
"U  c #7B0A36",
"Y  c #403F23",
"T  c #474817",
"R  c #57581A",
"E  c #6A6B1E",
"W  c #4C4C2B",
"Q  c #474725",
"!  c #4F502C",
"~  c #52532B",
"^  c #585A25",
"/  c #434333",
"(  c #4B4C3A",
")  c #474837",
"_  c #4F5033",
"`  c #4F503D",
"'  c #5B5C36",
"]  c #57593C",
"[  c #5F6134",
"{  c #6B6C29",
"}  c #676824",
"|  c #7A7C26",
" . c #6B6C34",
".. c #666839",
"X. c #6E703C",
"o. c #797B36",
"O. c #74763C",
"+. c #7B7D3B",
"@. c #777937",
"#. c #2C3C42",
"$. c #3E4242",
"%. c #35464D",
"&. c #3B4D56",
"*. c #3F5761",
"=. c #444846",
"-. c #454B4A",
";. c #4A4E4D",
":. c #464845",
">. c #4D514F",
",. c #5A5D4C",
"<. c #555845",
"1. c #4D5352",
"2. c #48565D",
"3. c #515756",
"4. c #565A54",
"5. c #595D57",
"6. c #555D5C",
"7. c #595E5D",
"8. c #5E614A",
"9. c #5E6145",
"0. c #5E6253",
"q. c #57605F",
"w. c #5A605E",
"e. c #676A47",
"r. c #6D714C",
"t. c #6E7144",
"y. c #727546",
"u. c #797C43",
"i. c #737847",
"p. c #616654",
"a. c #6A6F55",
"s. c #656959",
"d. c #6E7155",
"f. c #737754",
"g. c #435B65",
"h. c #445E69",
"j. c #47636E",
"k. c #48646F",
"l. c #5C6362",
"z. c #5F6867",
"x. c #576060",
"c. c #53707D",
"v. c #486570",
"b. c #606665",
"n. c #626866",
"m. c #646B6A",
"M. c #686E6D",
"N. c #69706E",
"B. c #6B7371",
"V. c #717978",
"C. c #831003",
"Z. c #8D1103",
"A. c #921203",
"S. c #9A1307",
"D. c #9D111C",
"F. c #AA1507",
"G. c #BD1704",
"H. c #BF1803",
"J. c #B4160A",
"K. c #B41604",
"L. c #AB1412",
"P. c #A31218",
"I. c #8A0D2A",
"U. c #850D25",
"Y. c #820B32",
"T. c #920F25",
"R. c #C11804",
"E. c #7E8136",
"W. c #7D8042",
"Q. c #7C8156",
"!. c #86881B",
"~. c #92941E",
"^. c #9EA11D",
"/. c #A6A919",
"(. c #83852A",
"). c #888B28",
"_. c #8F922A",
"`. c #949727",
"'. c #83863C",
"]. c #898D3A",
"[. c #8E923E",
"{. c #9DA023",
"}. c #9CA034",
"|. c #A9AD2C",
" X c #828641",
".X c #878B45",
"XX c #8F9343",
"oX c #5C7C89",
"OX c #627D8A",
"+X c #768488",
"@X c #688B9A",
"#X c #6C909F",
"$X c #7096A6",
"%X c #869CA5",
"&X c #80A9BB",
"*X c #8CB9CC",
"=X c #90B9CB",
"-X c #96C6DB",
";X c #98C5D9",
":X c #A0CADD",
">X c #B0C3C9",
",X c #B0D5E5",
"<X c #D7EAF0",
"1X c #CBE3EB",
"2X c #E6F2F5",
"3X c #F8FEFD",
/* pixels */
"X 0 | { 7 7 } ).} $ 6 !.^.R . 0 ~.~.0 . T /.~.6 o E /.E $ 0 | _.~ u W /.^.9 = ' ",
"T (.O.<.p )  XW./ f ' [.O.g k r.'.[ f g +.].] y ) @.@.) k <.u.t.:.:.r.XXi.j <.'.",
"`.).w.l.l.7.7.l.l.l.w.7.6.7.b.m.7.4.l.l.7.l.n.l.l.w.7.7.w.7.l.l.z.w.w.l.M.M.Q.).",
"| ~ 7.M.l.l.b.N.N.b.l.7.6.l.l.l.l.7.w.7.7.l.l.7.w.n.l.6.7.7.l.l.z.l.7.7.M.7.p.i ",
"- u 7.7.m.B.M.M.m.M.N.l.7.l.z.l.l.w.6.7.7.l.x.x.l.l.7.7.z.7.7.7.q.x.l.l.l.w.3.r ",
"$ ) b.l.n.B.N.n.m.M.N.z.7.7.l.l.l.w.7.7.7.6.7.z.n.7.7.l.l.7.7.7.7.7.x.l.l.l.,.{ ",
"~ y.w.7.l.n.m.n.n.l.l.7.6.7.7.z.z.z.7.7.7.7.7.l.z.l.7.7.7.6.7.7.7.7.q.l.l.z.f.|.",
"+.t.5.w.l.M.B.m.l.w.7.6.6.7.l.z.q.7.7.7.7.7.7.q.l.l.7.7.7.6.7.7.7.7.l.l.l.l.d.u.",
"[ / 3.l.l.b.n.m.b.l.7.7.6.7.q.7.7.7.7.7.1.j y t t e t s $.1.7.7.6.7.z.n.7.7.4.j ",
"= p w.w.w.l.l.l.l.l.z.7.6.6.7.7.7.7.7.-.-     .           * f 3.7.6.7.l.l.7.;.a ",
"7 ' 0.l.b.w.n.w.7.6.7.7.7.7.7.7.7.7.1.*   , C.A.Z.C.C.m ,     = 1.7.7.7.7.7.,.| ",
"{ E.5.7.7.7.l.7.7.6.6.6.7.7.x.q.7.6.t   z K.R.R.R.R.R.R.K.M O   w 6.7.7.7.7.r._.",
"(. .5.5.7.7.w.7.7.7.6.6.7.7.q.x.7.;.X O S.R.G.R.G.F.S.A.Z.A.z     j 7.7.q.l.p.~ ",
"Q p 4.l.b.w.7.7.7.7.6.7.7.7.7.7.7.k   5 J.H.G.M , # . . o o       - 1.7.7.7.>.y ",
"- / w.l.w.7.l.l.7.7.6.7.7.7.7.7.7.t   B G.R.N   X d g.OX%X%X+X2.=   - 1.7.7.>.Q ",
"0 '.n.b.l.7.7.7.7.6.7.7.7.7.7.7.7.- . G G.G.x   &.*X-X,X3X3X3X2X>X&.  y 7.7.0.@.",
"o.].s.l.7.6.6.7.6.6.6.7.x.6.=.f t . + U.G.G.< % h.&X-X:X1X1X<X2X<X=Xl * 3.7.a.O.",
" .] 6.l.7.6.7.7.7.7.7.7.7.y .       2 I.G.G.< & h.oX*X-X-X-X;X;X;X*X%.X 1.q.0./ ",
"g k 7.q.6.6.x.l.7.6.6.7.-.. . m n . 1 I.G.H.c X *.v.oX#X$X$X#X@XoXc.w X 1.z.5.r ",
"r ( w.q.7.7.7.7.6.6.6.7.k   z H.F.O 3 I.G.R.N   w h.k.j.j.j.j.j.h.#.. * 7.n.5._ ",
"~ i.w.w.7.7.6.6.6.7.7.7.k   v D.G . 4 Y.J.R.F.;   q %.*.g.g.&.d -     s w.7.p.O.",
" .t.6.7.7.6.6.6.6.7.7.7.k   C P D . 4 Y.J.H.H.Z.;     X % % o . ; . X 1.q.7.p...",
"_ / 4.7.7.6.6.6.7.7.7.7.f   Z P H . 4 U L.H.G.H.F.n z , , c M A.F.; X 1.q.7.4.p ",
"8 t 4.7.l.6.6.6.7.7.7.7.s   Z P H . 4 I P.H.G.G.H.R.G.G.G.G.R.R.J.> . -.7.l.1.p ",
"7 _ 6.7.7.7.6.6.6.6.6.7.y   A P H . 4 I T.G.G.G.G.G.G.G.G.G.G.H.L.1   $.7.7.,.{ ",
"E XXw.7.l.7.7.7.6.6.6.7.t   A P H . 4 I Y.J.H.G.G.G.G.G.G.G.G.H.D.1   $.7.7.r.`.",
"(.+.5.7.7.7.q.6.6.6.6.7.t . A P J . 4 I I D.H.G.G.G.G.G.G.G.H.G.I.1   $.7.7.a. .",
"' / 6.w.7.7.q.7.7.7.6.x.y   A P H . 4 I I Y.L.H.H.H.H.H.H.H.H.L.U 2 . =.7.l.4.f ",
"u j w.z.l.l.l.6.6.6.6.q.s   Z P J . 3 I I I Y.D.P.L.J.J.J.L.D.Y.L @ X ;.7.7.>.i ",
"a 9.l.z.l.7.7.6.7.6.6.7.k   V P K O 5 I I I I I I U Y.Y.Y.U I I K . * 3.7.7.8.!.",
" ..Xw.x.x.7.7.7.7.7.6.q.=.. @ H J . 1 I I I I I I P I I I I I I A   = 7.7.6.e.).",
"@.X.w.7.7.7.7.7.7.7.7.l.6.w   . +   2 P I I I L 3 1 4 V V b S I C   y l.7.7.8.Q ",
"Y g l.l.w.7.7.7.7.7.l.7.7.1.t * X   : L I I I F .       . 4 K I 1   k l.l.l.>.u ",
"u ) 7.l.7.w.7.7.7.l.z.b.n.m.b.6.>.X @ L I I I S   - e   4 I I L :   -.z.n.l.>.W ",
"( d.b.z.l.z.b.l.z.n.n.l.b.l.z.l.7.- O K I I I Z   e j   C I I P : X 3.N.B.z.e.(.",
"y.f.l.z.l.l.n.n.n.n.z.l.l.7.w.l.7.= . J I I I Z   e -.. 3 L L F + - n.B.V.n.i.).",
"..<.w.B.B.z.B.B.N.N.M.m.b.w.7.z.b.t   C L I K 1   f 6.=   @ @ .   $.N.B.+XB.a.i ",
"p f 6.l.M.M.N.l.m.B.M.z.l.7.7.M.M.j   . @ 1 +   * >.7.-.t = - = j z.z.M.N.M.3.8 ",
"u _ y.8.;.,..XXX,.;.9.u.y.g j t. X..8 X o o . X p y.y.>.;.8.e.e.:.1.p.a.0.=.) ^ ",
"W +.o.) p X.}.(.g / E._.^ = 0 {.`.Q u ! ..W u r { _.{ g `  X[.T - ] '.o.r * ^ `."
};
